<?xml version="1.0" encoding="utf-8"?>
<!-- Generator: Adobe Illustrator 22.0.1, SVG Export Plug-In . SVG Version: 6.00 Build 0)  -->
<svg version="1.1" id="圖層_1" xmlns="http://www.w3.org/2000/svg" xmlns:xlink="http://www.w3.org/1999/xlink" x="0px" y="0px"
	 viewBox="0 0 535 380" style="enable-background:new 0 0 535 380;" xml:space="preserve">
<style type="text/css">
	.st0{fill:#FFFFFF;stroke:#9E9E9E;stroke-width:0.75;stroke-miterlimit:10;}
	.st1{fill:#FF4E00;}
	.st2{fill:#FFFFFF;stroke:#040351;stroke-width:1.2;stroke-miterlimit:10;}
	.st3{fill:#FFFFFF;}
	.st4{fill:#040351;}
	.st5{enable-background:new    ;}
	.st6{clip-path:url(#SVGID_2_);}
	.st7{fill:#9E9E9E;}
	.st8{fill:#FFFFFF;stroke:#9E9E9E;stroke-width:0.5;stroke-miterlimit:10;}
	.st9{fill:#D3D3D3;}
	.st10{fill:#FFFFFF;stroke:#9E9E9E;stroke-width:0.25;stroke-miterlimit:10;}
	.st11{fill:#FFFFFF;stroke:#040351;stroke-miterlimit:10;}
	.st12{fill:#3D3D3D;}
	.st13{fill:none;stroke:#3D3D3D;stroke-miterlimit:10;}
	.st14{fill:#FFFFFF;stroke:#3D3D3D;stroke-miterlimit:10;}
</style>
<g>
	<rect x="110.9" y="117.6" class="st0" width="15.9" height="150.7"/>
	<rect x="402.5" y="117.6" class="st0" width="15.9" height="150.7"/>
	<g>
		<path class="st0" d="M80.2,32.3c0,0,192.9,20.8,371.9,0v87c0,0-192.9,34.5-371.9,0V32.3z"/>
		<g>
			<g>
				<path class="st1" d="M123.1,81.1c-2.6,7.4-5.6,13.8-8.9,19.1c-1-1-1.5-1.5-2.5-2.6c3.2-4.9,6.2-11.1,8.8-18.7
					C121.5,79.8,122,80.2,123.1,81.1z M122.9,63.4c-1,0.8-1.5,1.2-2.4,2c-1.6-3.3-4.2-6.9-7.7-10.9c0.9-0.8,1.3-1.3,2.2-2.1
					C118.5,56.2,121.1,59.9,122.9,63.4z M163.7,103.8c-0.7,1.2-1.1,1.7-1.8,2.9c-8.2-5.4-13.9-11.6-16.9-18.5c0,7.2,0,10.9-0.1,18.1
					c-1.2-0.2-1.7-0.3-2.9-0.4c0-7.4,0-11.1,0.1-18.5c-3.4,5.3-9.4,10-18,13.4c-0.8-1.2-1.2-1.8-2-2.9c7.7-2.6,13.4-6.7,16.9-12.1
					c-4.9-0.5-7.4-0.8-12.3-1.3c0-8.6,0-12.9,0-21.5c6.1,0.3,9.2,0.4,15.4,0.6c0-2.4,0-3.5,0-5.9c-7.5-0.2-11.2-0.3-18.7-0.5
					c0-1.2,0-1.8,0-3c7.5,0.1,11.2,0.2,18.7,0.3c0-2.4,0-3.6,0-6c1.2,0,1.7,0,2.9,0c0,2.4,0,3.6,0,6c7.4,0.1,11.1,0.2,18.5,0.3
					c0,1.3,0,2,0,3.3c-7.4-0.1-11.1-0.2-18.5-0.4c0,2.4,0,3.6,0,5.9c6,0.2,9.1,0.3,15.1,0.6c0,9.4-0.1,14.1-0.1,23.5
					c-5-0.4-7.5-0.6-12.4-1.1C149.7,92.4,155.1,98.1,163.7,103.8z M142.1,72.9c0-2.5,0-3.7,0-6.1c-4.9-0.2-7.3-0.4-12.2-0.6
					c0,2.4,0,3.6,0,5.9C134.8,72.4,137.2,72.6,142.1,72.9z M142.1,82.9c0-2.7,0-4.1,0-6.8c-4.9-0.4-7.3-0.5-12.2-0.9
					c0,2.6,0,3.9,0,6.5C134.8,82.2,137.2,82.5,142.1,82.9z M157.1,73.8c0-2.5,0-3.8,0-6.4c-4.8-0.2-7.2-0.3-12-0.5
					c0,2.5,0,3.7,0,6.2C149.8,73.4,152.3,73.5,157.1,73.8z M157,84.2c0-2.8,0-4.2,0-7c-4.8-0.3-7.2-0.5-12-0.8c0,2.7,0,4.1,0,6.8
					C149.8,83.6,152.2,83.8,157,84.2z"/>
				<path class="st1" d="M179.9,87.2c-1.6,7-3.7,13.1-6.4,18.3c-1-0.8-1.6-1.2-2.6-2c2.5-4.8,4.6-10.7,6.2-17.8
					C178.3,86.2,178.8,86.5,179.9,87.2z M196.3,59.5c-3,0-4.5-0.1-7.6-0.1c0,2.3,0,3.4,0,5.7c-1.2,0-1.8,0-3-0.1c0-2.3,0-3.4,0-5.7
					c-5.7-0.1-8.5-0.1-14.2-0.3c0-1.4,0-2.1,0-3.5c5.7,0.1,8.5,0.1,14.2,0.2c0-2.8,0-4.2,0-7.1c1.2,0,1.8,0,3,0c0,2.8,0,4.3,0,7.1
					c3,0,4.5,0,7.6,0.1C196.3,57.3,196.3,58,196.3,59.5z M195.8,82.8c-3.9-0.2-5.9-0.3-9.8-0.5c0,9.7-0.1,19.4-0.1,29.1
					c-1.2-0.1-1.8-0.2-3-0.3c0-9.7,0.1-19.3,0.1-29c-4.3-0.2-6.5-0.4-10.9-0.6c0-1.3,0-2,0-3.4c9.5,0.5,14.2,0.8,23.7,1.1
					C195.8,80.7,195.8,81.4,195.8,82.8z M194.7,71.7c-8.2-0.3-12.2-0.4-20.4-0.7c0-1.4,0-2.1,0-3.5c8.1,0.3,12.2,0.4,20.4,0.6
					C194.7,69.6,194.7,70.3,194.7,71.7z M196.3,99.7c-1.1,0.5-1.7,0.8-2.9,1.3c-0.7-3.7-2.2-8.1-4.3-13.2c1.2-0.5,1.8-0.7,2.9-1.2
					C193.9,90.9,195.3,95.3,196.3,99.7z M205.9,88.6c-1.8,7.4-4,13.9-6.8,19.4c-1.1-0.8-1.7-1.2-2.8-2c2.6-4.9,4.9-11.2,6.7-19
					C204.2,87.6,204.7,87.9,205.9,88.6z M223.5,59.8c-5.6-0.1-8.5-0.1-14.1-0.1c0,2.4,0,3.5,0,5.9c-1.2,0-1.8,0-3.1-0.1
					c0-2.3,0-3.5,0-5.9c-3,0-4.4-0.1-7.4-0.1c0-1.4,0-2.2,0-3.6c3,0,4.4,0,7.4,0.1c0-2.9,0-4.4,0-7.3c1.2,0,1.8,0,3.1,0
					c0,2.9,0,4.4,0,7.3c5.6,0,8.5,0.1,14.1,0.1C223.5,57.6,223.5,58.3,223.5,59.8z M223.3,83.8c-4.5-0.1-6.7-0.2-11.2-0.4
					c0,10-0.1,20.1-0.1,30.1c-1.2-0.1-1.8-0.1-3-0.2c0-10,0.1-20,0.1-30c-4-0.1-5.9-0.2-9.9-0.4c0-1.4,0-2.1,0-3.5
					c9.6,0.4,14.5,0.5,24.1,0.8C223.3,81.6,223.3,82.4,223.3,83.8z M220.9,72.4c-8.4-0.2-12.5-0.3-20.9-0.5c0-1.4,0-2.2,0-3.6
					c8.4,0.2,12.5,0.3,20.9,0.4C220.9,70.2,220.9,70.9,220.9,72.4z M223.4,107.4c-1.1,0.6-1.6,1-2.7,1.6c-1.1-5.9-3-12.6-5.6-20.1
					c1.1-0.5,1.7-0.8,2.8-1.3C220.3,94.2,222.1,100.8,223.4,107.4z"/>
				<path class="st1" d="M247.6,107.7c0-1.2,0.3-2.2,1-3.1c0.7-0.8,1.5-1.2,2.4-1.2c0.9,0,1.7,0.4,2.3,1.3c0.7,0.9,1,1.9,1,3.1
					c0,1.1-0.3,2.1-1,3c-0.6,0.8-1.4,1.2-2.3,1.2c-1,0-1.9-0.5-2.5-1.3C248,109.8,247.6,108.8,247.6,107.7z M253.5,53.7
					c-0.2,13.8-0.4,27.7-0.6,41.5c-1.6,0-2.4,0-4-0.1c-0.2-13.8-0.3-27.7-0.5-41.5C250.5,53.7,251.5,53.7,253.5,53.7z"/>
				<path class="st1" d="M290.3,88.4c-2.6,9.5-5.6,18-8.9,25.5c-1-1.1-1.5-1.6-2.6-2.6c3.2-7,6.2-15.4,8.9-25.2
					C288.7,87,289.2,87.5,290.3,88.4z M290,66.8c-1,1-1.5,1.6-2.4,2.6c-1.6-3.9-4.2-8.3-7.7-13.2c0.9-1.1,1.3-1.6,2.2-2.7
					C285.6,58.2,288.3,62.6,290,66.8z M331.3,107.4c-0.7,1.4-1.1,2.1-1.8,3.4c-8.3-4.1-14-9.9-17.1-17.3c0,8.2,0,12.3,0.1,20.5
					c-1.2,0.1-1.8,0.1-2.9,0.2c0-8.5,0-12.7-0.1-21.2c-3.3,6.6-9.4,13.1-18,19.3c-0.8-1.3-1.2-1.9-2.1-3.1
					c7.8-4.9,13.4-10.8,17-17.5c-4.9,0.2-7.4,0.2-12.4,0.3c0-10.4,0-15.6,0-26c6.2-0.1,9.2-0.1,15.4-0.2c0-2.7,0-4,0-6.7
					c-7.5,0.1-11.2,0.1-18.7,0.1c0-1.5,0-2.2,0-3.6c7.5,0,11.2,0,18.7-0.1c0-2.7,0-4.1,0-6.9c1.2,0,1.7,0,2.9,0c0,2.7,0,4.1,0,6.8
					c7.4,0,11.1-0.1,18.5-0.1c0,1.4,0,2.1,0,3.5c-7.4,0.1-11.1,0.1-18.5,0.2c0,2.7,0,4,0,6.7c6.1-0.1,9.1-0.1,15.1-0.3
					c0,10.1,0.1,15.2,0.1,25.3c-5,0.2-7.5,0.4-12.5,0.5C317.1,97.5,322.5,102.9,331.3,107.4z M309.4,76.4c0-2.8,0-4.2,0-7
					c-4.9,0.1-7.3,0.1-12.2,0.2c0,2.8,0,4.3,0,7.1C302.1,76.6,304.5,76.5,309.4,76.4z M309.4,87.9c0-3.1,0-4.6,0-7.7
					c-4.9,0.1-7.3,0.2-12.2,0.3c0,3.1,0,4.7,0,7.8C302.1,88.1,304.5,88,309.4,87.9z M324.4,76.1c0-2.8,0-4.2,0-6.9
					c-4.8,0.1-7.2,0.2-12.1,0.2c0,2.8,0,4.2,0,7C317.1,76.3,319.5,76.2,324.4,76.1z M324.4,87.3c0-3.1,0-4.6,0-7.6
					c-4.8,0.2-7.2,0.2-12.1,0.4c0,3.1,0,4.6,0,7.7C317.2,87.6,319.6,87.5,324.4,87.3z"/>
				<path class="st1" d="M347.4,87.5c-1.5,7.3-3.6,13.8-6.2,19.6c-1.1-0.6-1.6-1-2.6-1.6c2.5-5.4,4.5-11.9,6.1-19.3
					C345.7,86.8,346.3,87,347.4,87.5z M363.5,59c-3,0.1-4.5,0.1-7.6,0.1c0,2.3,0,3.4,0,5.6c-1.2,0-1.8,0.1-3,0.1c0-2.3,0-3.4,0-5.7
					c-5.7,0.1-8.5,0.1-14.2,0.2c0-1.4,0-2.2,0-3.6c5.7-0.1,8.5-0.1,14.2-0.2c0-2.8,0-4.2,0-7c1.2,0,1.8,0,3,0c0,2.8,0,4.2,0,7
					c3,0,4.5-0.1,7.6-0.1C363.5,57,363.5,57.6,363.5,59z M363.2,81.4c-3.9,0.2-5.9,0.4-9.8,0.6c0,9.6,0.1,19.2,0.1,28.8
					c-1.2,0.1-1.8,0.2-3,0.3c0-9.7-0.1-19.3-0.1-29c-4.3,0.2-6.5,0.3-10.9,0.6c0-1.4,0-2.1,0-3.5c9.5-0.4,14.2-0.6,23.7-1.2
					C363.2,79.4,363.2,80,363.2,81.4z M362,70.9c-8.1,0.3-12.2,0.5-20.4,0.8c0-1.4,0-2.1,0-3.6c8.2-0.2,12.2-0.4,20.4-0.7
					C362,68.8,362,69.5,362,70.9z M363.9,97.5c-1.1,0.7-1.7,1-2.8,1.7c-0.8-3.5-2.2-7.5-4.4-12.2c1.2-0.6,1.7-0.9,2.9-1.5
					C361.4,89.5,362.8,93.4,363.9,97.5z M373.3,85.7c-1.7,7.1-3.9,13.5-6.6,19.2c-1.1-0.6-1.7-0.9-2.8-1.4c2.6-5.1,4.8-11.5,6.5-19
					C371.6,85,372.1,85.2,373.3,85.7z M390.7,58.4c-5.6,0.1-8.5,0.2-14.1,0.3c0,2.2,0,3.2,0,5.4c-1.2,0-1.8,0.1-3.1,0.1
					c0-2.2,0-3.3,0-5.4c-3,0.1-4.4,0.1-7.4,0.2c0-1.4,0-2.1,0-3.4c3,0,4.4-0.1,7.4-0.1c0-2.7,0-4,0-6.7c1.2,0,1.8,0,3.1,0
					c0,2.7,0,4,0,6.7c5.6-0.1,8.5-0.1,14.1-0.2C390.7,56.4,390.7,57.1,390.7,58.4z M390.6,79.4c-4.5,0.4-6.7,0.5-11.2,0.9
					c0,11,0.1,16.4,0.1,27.4c-1.2,0.2-1.8,0.2-3,0.4c0-11-0.1-16.5-0.1-27.6c-4,0.3-5.9,0.4-9.9,0.7c0-1.3,0-2,0-3.3
					c9.6-0.6,14.4-0.9,24-1.6C390.6,77.5,390.6,78.1,390.6,79.4z M388.1,69.6c-8.3,0.4-12.5,0.7-20.8,1c0-1.4,0-2,0-3.4
					c8.3-0.3,12.5-0.5,20.8-0.9C388.1,67.7,388.1,68.3,388.1,69.6z M390.9,100c-1.1,0.8-1.6,1.1-2.7,1.9c-1.1-5-3-10.6-5.7-17
					c1.1-0.6,1.7-0.9,2.8-1.5C387.7,89,389.6,94.5,390.9,100z"/>
				<path class="st1" d="M414.9,96c0-1,0.3-1.9,1-2.6c0.7-0.8,1.4-1.2,2.3-1.4c0.9-0.1,1.6,0.1,2.3,0.6c0.7,0.6,1,1.3,1,2.3
					c0,0.9-0.3,1.7-1,2.5c-0.6,0.8-1.4,1.2-2.2,1.4c-1,0.2-1.9,0-2.5-0.6C415.2,97.6,414.9,96.9,414.9,96z M420.7,52.6
					c-0.2,10.9-0.4,21.8-0.5,32.6c-1.6,0.2-2.4,0.3-4,0.5c-0.2-11-0.4-22.1-0.6-33.1C417.6,52.6,418.6,52.6,420.7,52.6z"/>
			</g>
		</g>
	</g>
</g>
<path class="st2" d="M236.8,163.3c0,0-26.3-19.3-27.5-27.4s-2-22.2-1.4-25.1c0.6-2.9,6.4-10.4,5.8-12.7c-0.3-1.2-1.4-1.9-2.5-1.7
	c-1.6,0.2-2.1,1.7-3,2.6c0.1-1.8,0.3-3.6,0.1-5.5c-0.5-5-0.7-10.6-7.2-10.5c-10.8,0.2-13.7,15.4-9.4,23.2c1.4,2.6,2.6,3.5,2.3,6.8
	c-0.7,7.6-0.9,15.3-0.3,22.9c0.2,2.6,1.5,5.6,2.8,8c3.5,6.4,22.9,29.5,33.9,34.1L236.8,163.3z"/>
<g>
	<path class="st3" d="M253.6,353.5c-3.1,0-6,0.7-9,1.4c-0.7,0.2-1.4,0.3-2,0.7c-2,1-2.6,3.2-3,5.1c-0.2,1.1,0.4,1.7,1.5,2.1
		c3.7,1.1,7.9,1.1,11.7,0c2-0.6,4-1.2,5.8-2.1c2.1-1.1,4.3-2.6,3.9-5.2c-0.1-0.6-0.1-1.2-0.4-1.7c-0.3-0.5-0.8-1-1.2-1.3
		c-0.9-0.7-2.4-1.6-3.7-1.4"/>
	<g>
		<path class="st4" d="M253.6,353.1c-4.5,0.2-11.7,0.4-13.8,5.2c-2.4,5.5,3.5,5.8,7.8,5.7c4.2-0.1,12.6-1.6,14.7-6
			c1.8-3.8-1.7-6.9-5.3-7.2c-0.5,0-0.5,0.7,0,0.8c1.6,0,2.8,0.6,3.6,2c1.7,1.1,1.7,2.3-0.1,3.9c-1.4,2.8-2.2,3.2-5,4.2
			c-2.8,1-5.7,1.7-8.7,1.7c-1.2,0-3.2,0.1-4.3-0.5c-4.5-2.3-1.2-6.1,1.6-7.4c2.6-1.2,6.7-1.5,9.4-1.6
			C254.1,353.8,254.1,353.1,253.6,353.1L253.6,353.1z"/>
	</g>
</g>
<g>
	<path class="st3" d="M294.5,353.5c3.1,0,6,0.7,9,1.4c0.7,0.2,1.4,0.3,2,0.7c2,1,2.6,3.2,3,5.1c0.2,1.1-0.4,1.7-1.5,2.1
		c-3.7,1.1-7.9,1.1-11.7,0c-2-0.6-4-1.2-5.8-2.1c-0.9-0.4-1.7-1-2.4-1.6c-0.5-0.5-1.1-1-1.4-1.6c-0.3-0.7-0.2-1.3-0.1-2
		c0.1-0.6,0.1-1.2,0.4-1.7c0.3-0.5,0.8-1,1.2-1.3c0.9-0.7,2.4-1.6,3.7-1.4"/>
	<g>
		<path class="st4" d="M294.5,353.9c2.8,0.1,6.3,0.4,8.9,1.4c0.3,0.1,0.7,0.2,1,0.3c3.9,1.8,4.6,3.7,2.3,5.7c-1.5,2-3,2-5.5,2
			c-2.7,0-5.4-0.6-7.9-1.5c-1.4-0.5-3.7-0.9-4.7-2.1c-0.8-1.6-1.6-3.3-2.3-4.9c1-2.1,2.6-3.2,4.8-3.3c0.5,0,0.5-0.8,0-0.8
			c-3.3,0.3-7,3.2-5.6,6.9c1.8,4.6,10.9,6.2,15,6.3c3.9,0.1,9.8,0,8-5.1c-1.8-5.3-9.1-5.6-14-5.8C294,353.1,294,353.8,294.5,353.9
			L294.5,353.9z"/>
	</g>
</g>
<path class="st4" d="M247.9,230.6c0,0-6.5,59.5-0.1,123.1c0,0.3,0.3,0.5,0.6,0.5h13.8l13-91.7l10.4,91.7H300
	c0,0,11.5-86.4-1.5-123.6H247.9z"/>
<path class="st2" d="M303.6,207c0.7,11.9,1,24,0.4,35.9c-0.2,4.6-0.5,9.2-1.4,13.7c-0.9,4.6-3,9.1-5.6,13.1c-0.8,1.3-1.6,2.5-2,4
	c-0.6,2.7,1.6,5.2,4,6.3c4.3,2,7.8-0.3,9.6-4.1c2.3-4.9,3.1-10.4,4.1-15.7c1.3-6.5,2.1-13.1,3.1-19.7c1.3-9.2,2.8-18.7,2.7-28
	c0-1.1,0.4-4.8-1-5.5C313.8,205,303.6,207,303.6,207z"/>
<path class="st2" d="M265.9,170.4c-0.5-0.2-26.2-10-32-10.7l-8.5,18.8c0,0,12.9,7.1,17.9,15.3c4.2,6.9,4.1,30.8,4,37.7
	c0,1,0.8,1.9,1.8,1.9h48.6c1.3,0,2.3-1.1,2.3-2.3V201l1.5,12.2h19.4c0,0,2-36.4-30.9-42.2c-0.3,0-0.6-0.1-0.8-0.1
	C283.6,170.9,265.9,170.5,265.9,170.4z"/>
<path class="st2" d="M260.9,154.1v11.4c0,5.2,5.2,9.5,11.7,9.5h3.7c5.7,0,10.4-3.8,10.4-8.4v-12.5H260.9z"/>
<g>
	<path class="st1" d="M260.7,168.3c0,0-9.1-4.1-11.6,6.6s-3.9,60.2-3.9,60.2l30.1-0.8L260.7,168.3z"/>
	<path class="st1" d="M285.4,168.8c0,0,8.6-3.1,12.5,7.1c3.9,10.2,5,59.2,5,59.2l-31.2-0.8L285.4,168.8z"/>
	<ellipse class="st3" cx="291" cy="187.1" rx="6.5" ry="6.3"/>
	<g>
		<path d="M292,190.8h-1v-5.4c-0.2,0.2-0.5,0.4-0.9,0.6c-0.4,0.2-0.7,0.3-1,0.4v-0.8c0.5-0.2,1-0.5,1.4-0.8c0.4-0.3,0.7-0.6,0.8-0.9
			h0.6V190.8z"/>
	</g>
	<g>
		<path d="M296.1,205.3h-10.4v-0.6h4.9V201h-4.2v-0.6h4.2v-3.3h-4.5v-0.6h9.6v0.6h-4.5v3.3h4.2v0.6h-4.2v3.8h4.9V205.3z"/>
		<path d="M288.4,209.1c-0.6,2.4-1.4,4.1-2.3,5l-0.5-0.3c0.9-1,1.6-2.6,2.2-4.8L288.4,209.1z M291.3,215.3c0,0.2-0.1,0.3-0.2,0.5
			c-0.1,0.1-0.3,0.2-0.4,0.3c-0.2,0-0.5,0.1-0.9,0.1c-0.3,0-0.6,0-0.8,0l-0.3-0.6c1,0,1.6,0,1.8,0c0.1-0.1,0.2-0.2,0.2-0.3v-8.3h0.6
			V215.3z M296.1,213.8l-0.6,0.2c-0.6-1.7-1.2-3.3-2-4.9l0.6-0.2C294.8,210.4,295.4,212,296.1,213.8z"/>
		<path d="M289.6,225.2H289v-0.7h-2.3v1H286v-7.6h3.6V225.2z M289,220.8v-2.4h-2.3v2.4H289z M289,224v-2.6h-2.3v2.6H289z
			 M295.7,225.8c0,0.2-0.1,0.4-0.2,0.5c-0.1,0.1-0.3,0.2-0.5,0.3c-0.2,0-0.8,0.1-1.8,0l-0.3-0.5c0.3,0,0.6,0,0.9,0
			c0.6,0,1,0,1.1-0.1c0.1,0,0.1-0.1,0.1-0.2v-2.6h-3.5c-0.2,1.5-0.7,2.6-1.3,3.4l-0.6-0.3c0.9-1.1,1.4-2.8,1.4-5v-3.8h4.7V225.8z
			 M295.1,222.8v-2.1h-3.4c0,0.7,0,1.4-0.1,2.1H295.1z M295.1,220.1v-1.9h-3.4v1.9H295.1z"/>
	</g>
</g>
<g>
	<g>
		<g class="st5">
			<defs>
				<polygon id="SVGID_1_" class="st5" points="209.2,245 209.8,189.1 247.6,194.6 247,250.5 				"/>
			</defs>
			<clipPath id="SVGID_2_">
				<use xlink:href="#SVGID_1_"  style="overflow:visible;"/>
			</clipPath>
			<g class="st6">
				<g>
					<g>
						<g>
							<path class="st3" d="M228.8,226c-4.6-0.7-8.3-5.3-8.3-10.4c0.1-5.1,3.9-8.6,8.5-7.9c4.6,0.7,8.3,5.3,8.3,10.4
								C237.2,223.2,233.4,226.7,228.8,226 M221.7,201.4c-1.3-0.2-2.3-1.5-2.3-2.9c0-1.4,1.1-2.4,2.4-2.2c1.3,0.2,2.3,1.5,2.3,2.9
								C224.1,200.6,223,201.6,221.7,201.4 M236.5,203.6c-1.3-0.2-2.3-1.5-2.3-2.9c0-1.4,1.1-2.4,2.4-2.2c1.3,0.2,2.3,1.5,2.3,2.9
								C238.8,202.8,237.8,203.7,236.5,203.6 M241.1,194.1l-24.7-3.6c-0.2,0-0.4,0.1-0.4,0.2l-6.3,52.4c0,0.4,0.1,0.7,0.3,0.9
								c0.3,0.4,0.8,0.7,1.4,0.8l33.5,4.9c0.6,0.1,1.1-0.1,1.4-0.4c0.2-0.2,0.3-0.4,0.3-0.8l-5.1-54
								C241.5,194.3,241.3,194.1,241.1,194.1"/>
							<path class="st7" d="M211.3,244.8c-0.6-0.1-1.1-0.4-1.4-0.8c-0.1-0.2-0.3-0.5-0.3-0.9l6.3-52.4c0-0.1,0.2-0.3,0.4-0.2
								l24.7,3.6c0.2,0,0.4,0.2,0.4,0.4l5.1,54c0,0.4-0.1,0.7-0.3,0.8c-0.3,0.3-0.9,0.5-1.4,0.4L211.3,244.8 M241.1,193.6l-24.7-3.6
								c-0.5-0.1-0.9,0.2-0.9,0.6l-6.3,52.3c-0.1,0.4,0.1,0.9,0.4,1.3c0.4,0.5,1,0.9,1.7,1l33.5,4.9c0.7,0.1,1.4-0.1,1.8-0.5
								c0.3-0.3,0.4-0.7,0.4-1.2l-5.1-54C241.9,194.1,241.5,193.7,241.1,193.6"/>
							<path class="st3" d="M221.8,196.6c-1.2-0.2-2.1,0.7-2.1,2c0,1.3,0.9,2.4,2.1,2.6c1.2,0.2,2.1-0.7,2.1-2
								C223.9,197.9,222.9,196.7,221.8,196.6"/>
							<path class="st7" d="M221.7,201.2c-1.2-0.2-2.1-1.3-2.1-2.6c0-1.3,1-2.2,2.1-2c1.2,0.2,2.1,1.3,2.1,2.6
								C223.8,200.4,222.9,201.3,221.7,201.2 M221.8,196.3c-1.3-0.2-2.3,0.8-2.4,2.2c0,1.4,1,2.7,2.3,2.9c1.3,0.2,2.3-0.8,2.4-2.2
								C224.1,197.8,223.1,196.5,221.8,196.3"/>
							<path class="st3" d="M236.5,198.7c-1.2-0.2-2.1,0.7-2.1,2c0,1.3,0.9,2.4,2.1,2.6c1.2,0.2,2.1-0.7,2.1-2
								C238.6,200,237.7,198.9,236.5,198.7"/>
							<path class="st7" d="M236.5,203.3c-1.2-0.2-2.1-1.3-2.1-2.6c0-1.3,1-2.2,2.1-2c1.2,0.2,2.1,1.3,2.1,2.6
								C238.6,202.6,237.6,203.5,236.5,203.3 M236.5,198.5c-1.3-0.2-2.3,0.8-2.4,2.2c0,1.4,1,2.7,2.3,2.9c1.3,0.2,2.3-0.8,2.4-2.2
								C238.8,199.9,237.8,198.7,236.5,198.5"/>
							<path class="st1" d="M227.1,215.9l0-1.1c0.6-0.2,1.1-0.5,1.5-0.8c0.4-0.4,0.7-0.7,0.9-1.1l0.7,0.1l-0.1,9.1l-1-0.1l0.1-7.1
								c-0.2,0.2-0.6,0.4-1,0.6C227.8,215.7,227.5,215.8,227.1,215.9 M229,207.7c-4.6-0.7-8.4,2.9-8.5,7.9
								c-0.1,5.1,3.6,9.7,8.3,10.4c4.6,0.7,8.4-2.9,8.5-7.9C237.4,213.1,233.7,208.4,229,207.7"/>
							<path d="M230.2,213l-0.7-0.1c-0.2,0.4-0.5,0.7-0.9,1.1c-0.4,0.4-0.9,0.6-1.5,0.8l0,1.1c0.3-0.1,0.7-0.2,1.1-0.4
								c0.4-0.2,0.7-0.4,1-0.6l-0.1,7.1l1,0.1L230.2,213"/>
						</g>
					</g>
				</g>
			</g>
		</g>
	</g>
</g>
<g>
	<g>
		<path class="st1" d="M227.8,154.3c3.9-7.1,12.4-0.9,13.1,5c0.6,4.8-1.6,9.3-2.7,13.8c-2.4,9.3-3.2,19-2.6,28.5
			c0.1,0.8,1.3,0.8,1.2,0c-0.6-8.6,0-17.3,1.9-25.7c1.2-5.5,4.1-11.1,3.4-16.9c-0.9-7.2-11-13.5-15.4-5.4
			C226.4,154.4,227.4,155,227.8,154.3L227.8,154.3z"/>
	</g>
</g>
<g>
	<g>
		<path class="st1" d="M220.2,171.6c-0.1,9.1-1.4,19,0.8,28c0.2,0.7,1.3,0.4,1.2-0.3c-2.2-8.8-0.9-18.7-0.8-27.7
			C221.4,170.9,220.2,170.9,220.2,171.6L220.2,171.6z"/>
	</g>
</g>
<g>
	<circle class="st8" cx="100.2" cy="177.4" r="16.1"/>
	<g>
		<path class="st9" d="M101.1,186.1h-1.4v-2.3c-2,0-3.6-0.3-4.9-0.9v-1.8c0.5,0.4,1.3,0.7,2.3,0.9s1.9,0.4,2.6,0.4v-5.6
			c-2.1-0.8-3.5-1.5-4.1-2.1s-0.9-1.4-0.9-2.2c0-1,0.5-1.9,1.4-2.7c0.9-0.8,2.1-1.3,3.5-1.4v-1.9h1.4v1.9c1.9,0,3.1,0.2,3.8,0.6v1.8
			c-0.9-0.6-2.2-0.9-3.8-0.9v5.8c1.8,0.7,3.1,1.3,3.9,2c0.8,0.6,1.2,1.4,1.2,2.4c0,1-0.5,1.9-1.4,2.6c-0.9,0.7-2.1,1.1-3.7,1.3
			V186.1z M99.7,169.7c-0.8,0.1-1.5,0.4-1.9,0.9c-0.5,0.4-0.7,0.9-0.7,1.5c0,0.6,0.2,1.1,0.5,1.4s1,0.8,2.2,1.3V169.7z M101.1,182.3
			c1.9-0.3,2.8-1.1,2.8-2.3c0-1-0.9-1.9-2.8-2.7V182.3z"/>
	</g>
</g>
<g>
	<circle class="st8" cx="150.7" cy="222.3" r="16.1"/>
	<g>
		<path class="st9" d="M151.6,231h-1.4v-2.3c-2,0-3.6-0.3-4.9-0.9V226c0.5,0.4,1.3,0.7,2.3,0.9s1.9,0.4,2.6,0.4v-5.6
			c-2.1-0.8-3.5-1.5-4.1-2.1s-0.9-1.4-0.9-2.2c0-1,0.5-1.9,1.4-2.7c0.9-0.8,2.1-1.3,3.5-1.4v-1.9h1.4v1.9c1.9,0,3.1,0.2,3.8,0.6v1.8
			c-0.9-0.6-2.2-0.9-3.8-0.9v5.8c1.8,0.7,3.1,1.3,3.9,2c0.8,0.6,1.2,1.4,1.2,2.4c0,1-0.5,1.9-1.4,2.6c-0.9,0.7-2.1,1.1-3.7,1.3V231z
			 M150.1,214.6c-0.8,0.1-1.5,0.4-1.9,0.9c-0.5,0.4-0.7,0.9-0.7,1.5c0,0.6,0.2,1.1,0.5,1.4s1,0.8,2.2,1.3V214.6z M151.6,227.2
			c1.9-0.3,2.8-1.1,2.8-2.3c0-1-0.9-1.9-2.8-2.7V227.2z"/>
	</g>
</g>
<g>
	<circle class="st8" cx="59.5" cy="243.1" r="19.5"/>
	<g>
		<path class="st9" d="M60.5,253.7h-1.7v-2.7c-2.4,0-4.4-0.4-5.9-1.1v-2.2c0.6,0.4,1.6,0.8,2.7,1.1s2.2,0.5,3.2,0.4v-6.9
			c-2.6-1-4.2-1.8-4.9-2.6c-0.7-0.8-1-1.7-1-2.7c0-1.2,0.6-2.3,1.7-3.2c1.1-1,2.5-1.5,4.3-1.7v-2.4h1.7v2.3c2.3,0,3.8,0.3,4.6,0.7
			v2.2c-1.1-0.7-2.7-1.1-4.6-1.1v7.1c2.1,0.8,3.7,1.6,4.7,2.4s1.5,1.7,1.5,2.9c0,1.2-0.6,2.3-1.7,3.1c-1.1,0.8-2.6,1.4-4.5,1.6
			V253.7z M58.8,233.8c-1,0.2-1.8,0.5-2.4,1c-0.6,0.5-0.8,1.1-0.8,1.8c0,0.7,0.2,1.3,0.6,1.7c0.4,0.5,1.2,1,2.6,1.6V233.8z
			 M60.5,249.1c2.3-0.4,3.4-1.3,3.4-2.8c0-1.2-1.1-2.3-3.4-3.3V249.1z"/>
	</g>
</g>
<g>
	<circle class="st8" cx="59.5" cy="139.8" r="19.5"/>
	<g>
		<path class="st9" d="M60.5,150.3h-1.7v-2.7c-2.4,0-4.4-0.4-5.9-1.1v-2.2c0.6,0.4,1.6,0.8,2.7,1.1s2.2,0.5,3.2,0.4V139
			c-2.6-1-4.2-1.8-4.9-2.6c-0.7-0.8-1-1.7-1-2.7c0-1.2,0.6-2.3,1.7-3.2c1.1-1,2.5-1.5,4.3-1.7v-2.4h1.7v2.3c2.3,0,3.8,0.3,4.6,0.7
			v2.1c-1.1-0.7-2.7-1.1-4.6-1.1v7.1c2.1,0.8,3.7,1.6,4.7,2.4s1.5,1.7,1.5,2.9c0,1.2-0.6,2.3-1.7,3.1c-1.1,0.8-2.6,1.4-4.5,1.6
			V150.3z M58.8,130.5c-1,0.2-1.8,0.5-2.4,1c-0.6,0.5-0.8,1.1-0.8,1.8s0.2,1.3,0.6,1.7c0.4,0.5,1.2,1,2.6,1.6V130.5z M60.5,145.7
			c2.3-0.4,3.4-1.3,3.4-2.8c0-1.2-1.1-2.3-3.4-3.3V145.7z"/>
	</g>
</g>
<g>
	<circle class="st8" cx="472.3" cy="115" r="19.5"/>
	<g>
		<path class="st9" d="M473.3,125.6h-1.7v-2.7c-2.4,0-4.4-0.4-5.9-1.1v-2.2c0.6,0.4,1.6,0.8,2.7,1.1c1.2,0.3,2.2,0.5,3.2,0.4v-6.9
			c-2.6-1-4.2-1.8-4.9-2.6c-0.7-0.8-1-1.7-1-2.7c0-1.2,0.6-2.3,1.7-3.2s2.5-1.5,4.3-1.7v-2.4h1.7v2.3c2.3,0,3.8,0.3,4.6,0.7v2.1
			c-1.1-0.7-2.7-1.1-4.6-1.1v7.1c2.1,0.8,3.7,1.6,4.7,2.4c1,0.8,1.5,1.7,1.5,2.9c0,1.2-0.6,2.3-1.7,3.1s-2.6,1.4-4.5,1.6V125.6z
			 M471.6,105.7c-1,0.2-1.8,0.5-2.4,1s-0.8,1.1-0.8,1.8s0.2,1.3,0.6,1.7s1.2,1,2.6,1.6V105.7z M473.3,121c2.3-0.4,3.4-1.3,3.4-2.8
			c0-1.2-1.1-2.3-3.4-3.3V121z"/>
	</g>
</g>
<g>
	<circle class="st8" cx="462.3" cy="190.5" r="13.4"/>
	<g>
		<path class="st9" d="M463,197.7h-1.2v-1.9c-1.7,0-3-0.3-4.1-0.8v-1.5c0.4,0.3,1.1,0.6,1.9,0.8s1.5,0.3,2.2,0.3v-4.7
			c-1.8-0.7-2.9-1.2-3.4-1.8c-0.5-0.5-0.7-1.1-0.7-1.9c0-0.8,0.4-1.6,1.1-2.2c0.8-0.7,1.7-1,2.9-1.2v-1.6h1.2v1.6
			c1.5,0,2.6,0.2,3.2,0.5v1.5c-0.8-0.5-1.8-0.7-3.2-0.8v4.8c1.5,0.6,2.5,1.1,3.2,1.6c0.7,0.5,1,1.2,1,2c0,0.9-0.4,1.6-1.1,2.1
			s-1.8,0.9-3.1,1.1V197.7z M461.8,184.2c-0.7,0.1-1.2,0.4-1.6,0.7c-0.4,0.4-0.6,0.8-0.6,1.3s0.1,0.9,0.4,1.2s0.9,0.7,1.8,1.1V184.2
			z M463,194.6c1.5-0.3,2.3-0.9,2.3-1.9c0-0.8-0.8-1.6-2.3-2.2V194.6z"/>
	</g>
</g>
<g>
	<circle class="st8" cx="512.1" cy="331.2" r="13.4"/>
	<g>
		<path class="st9" d="M512.8,338.5h-1.2v-1.9c-1.7,0-3-0.3-4.1-0.8v-1.5c0.4,0.3,1.1,0.6,1.9,0.8s1.5,0.3,2.2,0.3v-4.7
			c-1.8-0.7-2.9-1.2-3.4-1.8c-0.5-0.5-0.7-1.1-0.7-1.9c0-0.8,0.4-1.6,1.1-2.2c0.8-0.7,1.7-1,2.9-1.2v-1.6h1.2v1.6
			c1.5,0,2.6,0.2,3.2,0.5v1.5c-0.8-0.5-1.8-0.7-3.2-0.8v4.8c1.5,0.6,2.5,1.1,3.2,1.6c0.7,0.5,1,1.2,1,2c0,0.9-0.4,1.6-1.1,2.1
			s-1.8,0.9-3.1,1.1V338.5z M511.6,324.9c-0.7,0.1-1.2,0.4-1.6,0.7c-0.4,0.4-0.6,0.8-0.6,1.3s0.1,0.9,0.4,1.2s0.9,0.7,1.8,1.1V324.9
			z M512.8,335.3c1.5-0.3,2.3-0.9,2.3-1.9c0-0.8-0.8-1.6-2.3-2.2V335.3z"/>
	</g>
</g>
<g>
	<circle class="st8" cx="434" cy="239" r="19.5"/>
	<g>
		<path class="st9" d="M435.1,249.6h-1.7v-2.7c-2.4,0-4.4-0.4-5.9-1.1v-2.2c0.6,0.4,1.6,0.8,2.7,1.1c1.2,0.3,2.2,0.5,3.2,0.4v-6.9
			c-2.6-1-4.2-1.8-4.9-2.6c-0.7-0.8-1-1.7-1-2.7c0-1.2,0.6-2.3,1.7-3.2s2.5-1.5,4.3-1.7v-2.4h1.7v2.3c2.3,0,3.8,0.3,4.6,0.7v2.2
			c-1.1-0.7-2.7-1.1-4.6-1.1v7.1c2.1,0.8,3.7,1.6,4.7,2.4c1,0.8,1.5,1.7,1.5,2.9c0,1.2-0.6,2.3-1.7,3.1c-1.1,0.8-2.6,1.4-4.5,1.6
			V249.6z M433.4,229.8c-1,0.2-1.8,0.5-2.4,1c-0.6,0.5-0.8,1.1-0.8,1.8c0,0.7,0.2,1.3,0.6,1.7c0.4,0.5,1.2,1,2.6,1.6V229.8z
			 M435.1,245c2.3-0.4,3.4-1.3,3.4-2.8c0-1.2-1.1-2.3-3.4-3.3V245z"/>
	</g>
</g>
<g>
	<circle class="st8" cx="462.3" cy="312.2" r="19.5"/>
	<g>
		<path class="st9" d="M463.4,322.8h-1.7V320c-2.4,0-4.4-0.4-5.9-1.1v-2.2c0.6,0.4,1.6,0.8,2.7,1.1c1.2,0.3,2.2,0.5,3.2,0.4v-6.9
			c-2.6-1-4.2-1.8-4.9-2.6c-0.7-0.8-1-1.7-1-2.7c0-1.2,0.6-2.3,1.7-3.2s2.5-1.5,4.3-1.7v-2.4h1.7v2.3c2.3,0,3.8,0.3,4.6,0.7v2.2
			c-1.1-0.7-2.7-1.1-4.6-1.1v7.1c2.1,0.8,3.7,1.6,4.7,2.4c1,0.8,1.5,1.7,1.5,2.9c0,1.2-0.6,2.3-1.7,3.1c-1.1,0.8-2.6,1.4-4.5,1.6
			V322.8z M461.6,303c-1,0.2-1.8,0.5-2.4,1c-0.6,0.5-0.8,1.1-0.8,1.8c0,0.7,0.2,1.3,0.6,1.7c0.4,0.5,1.2,1,2.6,1.6V303z
			 M463.4,318.2c2.3-0.4,3.4-1.3,3.4-2.8c0-1.2-1.1-2.3-3.4-3.3V318.2z"/>
	</g>
</g>
<g>
	<circle class="st8" cx="152" cy="309" r="13"/>
	<g>
		<path class="st9" d="M152.7,316h-1.2v-1.8c-1.6,0-2.9-0.2-4-0.7V312c0.4,0.3,1,0.5,1.8,0.8c0.8,0.2,1.5,0.3,2.1,0.3v-4.6
			c-1.7-0.6-2.8-1.2-3.3-1.7c-0.5-0.5-0.7-1.1-0.7-1.8c0-0.8,0.4-1.5,1.1-2.2s1.7-1,2.9-1.1v-1.6h1.2v1.5c1.5,0,2.5,0.2,3.1,0.5v1.4
			c-0.7-0.5-1.8-0.7-3.1-0.7v4.7c1.4,0.5,2.5,1.1,3.1,1.6c0.7,0.5,1,1.1,1,1.9c0,0.8-0.4,1.5-1.1,2.1s-1.7,0.9-3,1.1V316z
			 M151.6,302.8c-0.7,0.1-1.2,0.3-1.6,0.7s-0.6,0.8-0.6,1.2s0.1,0.9,0.4,1.2c0.2,0.3,0.8,0.7,1.8,1.1V302.8z M152.7,313
			c1.5-0.3,2.3-0.9,2.3-1.9c0-0.8-0.8-1.6-2.3-2.2V313z"/>
	</g>
</g>
<g>
	<circle class="st8" cx="79.7" cy="294.9" r="13.4"/>
	<g>
		<path class="st9" d="M80.5,302.1h-1.2v-1.9c-1.7,0-3-0.3-4.1-0.8V298c0.4,0.3,1.1,0.6,1.9,0.8c0.8,0.2,1.5,0.3,2.2,0.3v-4.7
			c-1.8-0.7-2.9-1.2-3.4-1.8c-0.5-0.5-0.7-1.1-0.7-1.9c0-0.8,0.4-1.6,1.1-2.2c0.8-0.7,1.7-1,2.9-1.2v-1.6h1.2v1.6
			c1.5,0,2.6,0.2,3.2,0.5v1.5c-0.8-0.5-1.8-0.7-3.2-0.8v4.8c1.5,0.6,2.5,1.1,3.2,1.6c0.7,0.5,1,1.2,1,2c0,0.9-0.4,1.6-1.1,2.1
			c-0.8,0.6-1.8,0.9-3.1,1.1V302.1z M79.3,288.6c-0.7,0.1-1.2,0.4-1.6,0.7c-0.4,0.4-0.6,0.8-0.6,1.3s0.1,0.9,0.4,1.2
			s0.9,0.7,1.8,1.1V288.6z M80.5,299c1.5-0.3,2.3-0.9,2.3-1.9c0-0.8-0.8-1.6-2.3-2.2V299z"/>
	</g>
</g>
<g>
	<circle class="st8" cx="25.8" cy="106.8" r="13.4"/>
	<g>
		<path class="st9" d="M26.5,114h-1.2v-1.9c-1.7,0-3-0.3-4.1-0.8v-1.5c0.4,0.3,1.1,0.6,1.9,0.8c0.8,0.2,1.5,0.3,2.2,0.3v-4.7
			c-1.8-0.7-2.9-1.2-3.4-1.8c-0.5-0.5-0.7-1.1-0.7-1.9c0-0.8,0.4-1.6,1.1-2.2c0.8-0.7,1.7-1,2.9-1.2v-1.6h1.2v1.6
			c1.5,0,2.6,0.2,3.2,0.5v1.5c-0.8-0.5-1.8-0.7-3.2-0.8v4.8c1.5,0.6,2.5,1.1,3.2,1.6s1,1.2,1,2c0,0.9-0.4,1.6-1.1,2.1
			c-0.8,0.6-1.8,0.9-3.1,1.1V114z M25.3,100.5c-0.7,0.1-1.2,0.4-1.6,0.7c-0.4,0.4-0.6,0.8-0.6,1.3s0.1,0.9,0.4,1.2s0.9,0.7,1.8,1.1
			V100.5z M26.5,110.9c1.5-0.3,2.3-0.9,2.3-1.9c0-0.8-0.8-1.6-2.3-2.2V110.9z"/>
	</g>
</g>
<g>
	<circle class="st8" cx="34.3" cy="28.6" r="13.4"/>
	<g>
		<path class="st9" d="M35,35.8h-1.2V34c-1.7,0-3-0.3-4.1-0.8v-1.5c0.4,0.3,1.1,0.6,1.9,0.8c0.8,0.2,1.5,0.3,2.2,0.3v-4.7
			c-1.8-0.7-2.9-1.2-3.4-1.8c-0.5-0.5-0.7-1.1-0.7-1.9c0-0.8,0.4-1.6,1.1-2.2c0.8-0.7,1.7-1,2.9-1.2v-1.6H35v1.6
			c1.5,0,2.6,0.2,3.2,0.5V23c-0.8-0.5-1.8-0.7-3.2-0.8v4.8c1.5,0.6,2.5,1.1,3.2,1.6s1,1.2,1,2c0,0.9-0.4,1.6-1.1,2.1
			c-0.8,0.6-1.8,0.9-3.1,1.1V35.8z M33.8,22.3c-0.7,0.1-1.2,0.4-1.6,0.7c-0.4,0.4-0.6,0.8-0.6,1.3s0.1,0.9,0.4,1.2
			c0.3,0.3,0.9,0.7,1.8,1.1V22.3z M35,32.7c1.5-0.3,2.3-0.9,2.3-1.9c0-0.8-0.8-1.6-2.3-2.2V32.7z"/>
	</g>
</g>
<g>
	<circle class="st1" cx="116.7" cy="286.6" r="11.4"/>
	<g>
		<path class="st10" d="M117.3,293.3h-1v-1.6c-1.4,0-2.6-0.2-3.5-0.7v-1.3c0.4,0.3,0.9,0.5,1.6,0.7c0.7,0.2,1.3,0.3,1.9,0.3v-4
			c-1.5-0.6-2.5-1.1-2.9-1.5c-0.4-0.4-0.6-1-0.6-1.6c0-0.7,0.3-1.3,1-1.9c0.7-0.6,1.5-0.9,2.5-1v-1.4h1v1.4c1.3,0,2.2,0.2,2.7,0.4
			v1.3c-0.7-0.4-1.6-0.6-2.7-0.7v4.1c1.3,0.5,2.2,0.9,2.7,1.4c0.6,0.4,0.9,1,0.9,1.7c0,0.7-0.3,1.3-1,1.8c-0.6,0.5-1.5,0.8-2.6,0.9
			V293.3z M116.3,281.7c-0.6,0.1-1.1,0.3-1.4,0.6c-0.3,0.3-0.5,0.7-0.5,1.1c0,0.4,0.1,0.8,0.3,1c0.2,0.3,0.7,0.6,1.5,1V281.7z
			 M117.3,290.6c1.3-0.2,2-0.8,2-1.6c0-0.7-0.7-1.4-2-1.9V290.6z"/>
	</g>
</g>
<g>
	<circle class="st1" cx="495.6" cy="266.7" r="11.4"/>
	<g>
		<path class="st10" d="M496.2,273.5h-1v-1.6c-1.4,0-2.6-0.2-3.5-0.7v-1.3c0.4,0.3,0.9,0.5,1.6,0.7c0.7,0.2,1.3,0.3,1.9,0.3v-4
			c-1.5-0.6-2.5-1.1-2.9-1.5c-0.4-0.4-0.6-1-0.6-1.6c0-0.7,0.3-1.3,1-1.9c0.7-0.6,1.5-0.9,2.5-1v-1.4h1v1.4c1.3,0,2.2,0.2,2.7,0.4
			v1.3c-0.7-0.4-1.6-0.6-2.7-0.7v4.1c1.3,0.5,2.2,0.9,2.7,1.4c0.6,0.4,0.9,1,0.9,1.7c0,0.7-0.3,1.3-1,1.8c-0.6,0.5-1.5,0.8-2.6,0.9
			V273.5z M495.2,261.9c-0.6,0.1-1.1,0.3-1.4,0.6c-0.3,0.3-0.5,0.7-0.5,1.1c0,0.4,0.1,0.8,0.3,1c0.2,0.3,0.7,0.6,1.5,1V261.9z
			 M496.2,270.8c1.3-0.2,2-0.8,2-1.6c0-0.7-0.7-1.4-2-1.9V270.8z"/>
	</g>
</g>
<g>
	<circle class="st1" cx="50.6" cy="67.7" r="11.4"/>
	<g>
		<path class="st10" d="M51.2,74.4h-1v-1.6c-1.4,0-2.6-0.2-3.5-0.7v-1.3c0.4,0.3,0.9,0.5,1.6,0.7c0.7,0.2,1.3,0.3,1.9,0.3v-4
			c-1.5-0.6-2.5-1.1-2.9-1.5c-0.4-0.4-0.6-1-0.6-1.6c0-0.7,0.3-1.3,1-1.9s1.5-0.9,2.5-1v-1.4h1v1.4c1.3,0,2.2,0.2,2.7,0.4v1.3
			c-0.7-0.4-1.6-0.6-2.7-0.7v4.1c1.3,0.5,2.2,0.9,2.7,1.4c0.6,0.4,0.9,1,0.9,1.7c0,0.7-0.3,1.3-1,1.8c-0.6,0.5-1.5,0.8-2.6,0.9V74.4
			z M50.2,62.8c-0.6,0.1-1.1,0.3-1.4,0.6c-0.3,0.3-0.5,0.7-0.5,1.1c0,0.4,0.1,0.8,0.3,1c0.2,0.3,0.7,0.6,1.5,1V62.8z M51.2,71.7
			c1.3-0.2,2-0.8,2-1.6c0-0.7-0.7-1.4-2-1.9V71.7z"/>
	</g>
</g>
<g>
	<circle class="st1" cx="23.4" cy="286.1" r="11.4"/>
	<g>
		<path class="st10" d="M24.1,292.8h-1v-1.6c-1.4,0-2.6-0.2-3.5-0.7v-1.3c0.4,0.3,0.9,0.5,1.6,0.7c0.7,0.2,1.3,0.3,1.9,0.3v-4
			c-1.5-0.6-2.5-1.1-2.9-1.5c-0.4-0.4-0.6-1-0.6-1.6c0-0.7,0.3-1.3,1-1.9c0.7-0.6,1.5-0.9,2.5-1v-1.4h1v1.4c1.3,0,2.2,0.2,2.7,0.4
			v1.3c-0.7-0.4-1.6-0.6-2.7-0.7v4.1c1.3,0.5,2.2,0.9,2.7,1.4c0.6,0.4,0.9,1,0.9,1.7c0,0.7-0.3,1.3-1,1.8c-0.6,0.5-1.5,0.8-2.6,0.9
			V292.8z M23.1,281.2c-0.6,0.1-1.1,0.3-1.4,0.6c-0.3,0.3-0.5,0.7-0.5,1.1c0,0.4,0.1,0.8,0.3,1c0.2,0.3,0.7,0.6,1.5,1V281.2z
			 M24.1,290.1c1.3-0.2,2-0.8,2-1.6c0-0.7-0.7-1.4-2-1.9V290.1z"/>
	</g>
</g>
<g>
	<circle class="st1" cx="51.2" cy="191.9" r="11.4"/>
	<g>
		<path class="st10" d="M51.9,198.6h-1V197c-1.4,0-2.6-0.2-3.5-0.7v-1.3c0.4,0.3,0.9,0.5,1.6,0.7c0.7,0.2,1.3,0.3,1.9,0.3v-4
			c-1.5-0.6-2.5-1.1-2.9-1.5c-0.4-0.4-0.6-1-0.6-1.6c0-0.7,0.3-1.3,1-1.9c0.7-0.6,1.5-0.9,2.5-1v-1.4h1v1.4c1.3,0,2.2,0.2,2.7,0.4
			v1.3c-0.7-0.4-1.6-0.6-2.7-0.7v4.1c1.3,0.5,2.2,0.9,2.7,1.4c0.6,0.4,0.9,1,0.9,1.7c0,0.7-0.3,1.3-1,1.8c-0.6,0.5-1.5,0.8-2.6,0.9
			V198.6z M50.9,187c-0.6,0.1-1.1,0.3-1.4,0.6c-0.3,0.3-0.5,0.7-0.5,1.1c0,0.4,0.1,0.8,0.3,1c0.2,0.3,0.7,0.6,1.5,1V187z
			 M51.9,195.9c1.3-0.2,2-0.8,2-1.6c0-0.7-0.7-1.4-2-1.9V195.9z"/>
	</g>
</g>
<g>
	<circle class="st1" cx="82.2" cy="334.2" r="11.4"/>
	<g>
		<path class="st10" d="M82.8,340.9h-1v-1.6c-1.4,0-2.6-0.2-3.5-0.7v-1.3c0.4,0.3,0.9,0.5,1.6,0.7c0.7,0.2,1.3,0.3,1.9,0.3v-4
			c-1.5-0.6-2.5-1.1-2.9-1.5c-0.4-0.4-0.6-1-0.6-1.6c0-0.7,0.3-1.3,1-1.9c0.7-0.6,1.5-0.9,2.5-1v-1.4h1v1.4c1.3,0,2.2,0.2,2.7,0.4
			v1.3c-0.7-0.4-1.6-0.6-2.7-0.7v4.1c1.3,0.5,2.2,0.9,2.7,1.4c0.6,0.4,0.9,1,0.9,1.7c0,0.7-0.3,1.3-1,1.8c-0.6,0.5-1.5,0.8-2.6,0.9
			V340.9z M81.8,329.3c-0.6,0.1-1.1,0.3-1.4,0.6c-0.3,0.3-0.5,0.7-0.5,1.1c0,0.4,0.1,0.8,0.3,1c0.2,0.3,0.7,0.6,1.5,1V329.3z
			 M82.8,338.2c1.3-0.2,2-0.8,2-1.6c0-0.7-0.7-1.4-2-1.9V338.2z"/>
	</g>
</g>
<g>
	<circle class="st1" cx="424.1" cy="152" r="11.4"/>
	<g>
		<path class="st10" d="M424.8,158.7h-1v-1.6c-1.4,0-2.6-0.2-3.5-0.7v-1.3c0.4,0.3,0.9,0.5,1.6,0.7c0.7,0.2,1.3,0.3,1.9,0.3v-4
			c-1.5-0.6-2.5-1.1-2.9-1.5c-0.4-0.4-0.6-1-0.6-1.6c0-0.7,0.3-1.3,1-1.9c0.7-0.6,1.5-0.9,2.5-1v-1.4h1v1.4c1.3,0,2.2,0.2,2.7,0.4
			v1.3c-0.7-0.4-1.6-0.6-2.7-0.7v4.1c1.3,0.5,2.2,0.9,2.7,1.4c0.6,0.4,0.9,1,0.9,1.7c0,0.7-0.3,1.3-1,1.8c-0.6,0.5-1.5,0.8-2.6,0.9
			V158.7z M423.7,147.1c-0.6,0.1-1.1,0.3-1.4,0.6c-0.3,0.3-0.5,0.7-0.5,1.1c0,0.4,0.1,0.8,0.3,1c0.2,0.3,0.7,0.6,1.5,1V147.1z
			 M424.8,156c1.3-0.2,2-0.8,2-1.6c0-0.7-0.7-1.4-2-1.9V156z"/>
	</g>
</g>
<g>
	<circle class="st1" cx="507.2" cy="190.5" r="11.4"/>
	<g>
		<path class="st10" d="M507.8,197.3h-1v-1.6c-1.4,0-2.6-0.2-3.5-0.7v-1.3c0.4,0.3,0.9,0.5,1.6,0.7c0.7,0.2,1.3,0.3,1.9,0.3v-4
			c-1.5-0.6-2.5-1.1-2.9-1.5c-0.4-0.4-0.6-1-0.6-1.6c0-0.7,0.3-1.3,1-1.9c0.7-0.6,1.5-0.9,2.5-1v-1.4h1v1.4c1.3,0,2.2,0.2,2.7,0.4
			v1.3c-0.7-0.4-1.6-0.6-2.7-0.7v4.1c1.3,0.5,2.2,0.9,2.7,1.4c0.6,0.4,0.9,1,0.9,1.7c0,0.7-0.3,1.3-1,1.8c-0.6,0.5-1.5,0.8-2.6,0.9
			V197.3z M506.8,185.7c-0.6,0.1-1.1,0.3-1.4,0.6c-0.3,0.3-0.5,0.7-0.5,1.1c0,0.4,0.1,0.8,0.3,1c0.2,0.3,0.7,0.6,1.5,1V185.7z
			 M507.8,194.6c1.3-0.2,2-0.8,2-1.6c0-0.7-0.7-1.4-2-1.9V194.6z"/>
	</g>
</g>
<g>
	<circle class="st1" cx="480.2" cy="45.5" r="11.4"/>
	<g>
		<path class="st10" d="M480.8,52.2h-1v-1.6c-1.4,0-2.6-0.2-3.5-0.7v-1.3c0.4,0.3,0.9,0.5,1.6,0.7s1.3,0.3,1.9,0.3v-4
			c-1.5-0.6-2.5-1.1-2.9-1.5c-0.4-0.4-0.6-1-0.6-1.6c0-0.7,0.3-1.3,1-1.9s1.5-0.9,2.5-1v-1.4h1v1.4c1.3,0,2.2,0.2,2.7,0.4v1.3
			c-0.7-0.4-1.6-0.6-2.7-0.7v4.1c1.3,0.5,2.2,0.9,2.7,1.4c0.6,0.4,0.9,1,0.9,1.7c0,0.7-0.3,1.3-1,1.8c-0.6,0.5-1.5,0.8-2.6,0.9V52.2
			z M479.8,40.6c-0.6,0.1-1.1,0.3-1.4,0.6c-0.3,0.3-0.5,0.7-0.5,1.1c0,0.4,0.1,0.8,0.3,1c0.2,0.3,0.7,0.6,1.5,1V40.6z M480.8,49.5
			c1.3-0.2,2-0.8,2-1.6c0-0.7-0.7-1.4-2-1.9V49.5z"/>
	</g>
</g>
<g>
	<circle class="st1" cx="399.4" cy="306.1" r="11.4"/>
	<g>
		<path class="st10" d="M400,312.8h-1v-1.6c-1.4,0-2.6-0.2-3.5-0.7v-1.3c0.4,0.3,0.9,0.5,1.6,0.7c0.7,0.2,1.3,0.3,1.9,0.3v-4
			c-1.5-0.6-2.5-1.1-2.9-1.5c-0.4-0.4-0.6-1-0.6-1.6c0-0.7,0.3-1.3,1-1.9c0.7-0.6,1.5-0.9,2.5-1v-1.4h1v1.4c1.3,0,2.2,0.2,2.7,0.4
			v1.3c-0.7-0.4-1.6-0.6-2.7-0.7v4.1c1.3,0.5,2.2,0.9,2.7,1.4c0.6,0.4,0.9,1,0.9,1.7c0,0.7-0.3,1.3-1,1.8c-0.6,0.5-1.5,0.8-2.6,0.9
			V312.8z M399,301.2c-0.6,0.1-1.1,0.3-1.4,0.6c-0.3,0.3-0.5,0.7-0.5,1.1c0,0.4,0.1,0.8,0.3,1c0.2,0.3,0.7,0.6,1.5,1V301.2z
			 M400,310.1c1.3-0.2,2-0.8,2-1.6c0-0.7-0.7-1.4-2-1.9V310.1z"/>
	</g>
</g>
<g>
	<path class="st11" d="M306.9,117.9c0,0,2.4,1.5,1.6,6.2c-0.8,4.6-3.3,7.7-3.3,10c0,2.3-3.3,7.7-3.3,7.7s0-20,2.4-23.1
		S306.9,117.9,306.9,117.9z"/>
	<path class="st11" d="M240.6,117.7c-0.5,0.6-1.1,1.3-1.4,2c-0.6,1.3-0.7,2.8-0.5,4.2c0.5,4.7,2.7,7.9,2.5,10.2s4.5,8.8,4.5,8.8
		s-0.4-20.9-2.6-24.1c-0.4-0.5-0.8-1.6-1.6-1.7c-0.3,0-0.6,0.2-0.8,0.4C240.7,117.6,240.7,117.7,240.6,117.7z"/>
	<ellipse class="st11" cx="273.2" cy="125.4" rx="30.8" ry="42.1"/>
	<path class="st12" d="M252.7,116.1l4.2-3c0.7-0.5,1.6-0.7,2.4-0.5l6.8,1.4c0.5,0.1,0.4,0.8-0.1,0.8h-7.5c-0.4,0-0.7,0.1-1.1,0.2
		l-4.4,1.6C252.7,116.6,252.4,116.3,252.7,116.1z"/>
	<path class="st12" d="M291.6,115.7l-4.2-3c-0.7-0.5-1.6-0.7-2.4-0.5l-6.8,1.4c-0.5,0.1-0.4,0.8,0.1,0.8h7.5c0.4,0,0.7,0.1,1.1,0.2
		l4.4,1.6C291.6,116.2,291.9,115.9,291.6,115.7z"/>
	<path class="st13" d="M242.1,119.4c0,0,2.1,5.9,7.5,4.9"/>
	<path class="st13" d="M303.2,120.1c0,0-2.2,5.2-7.6,4.2"/>
	<path class="st13" d="M261,146.6c3.6,0,19.7,0,23.1,0c0.3,0,0.4,0.3,0.2,0.5c-2,2.2-10.9,10.8-23.5,0
		C260.7,146.9,260.8,146.6,261,146.6z"/>
	<line class="st13" x1="269.7" y1="124.5" x2="275" y2="124.5"/>
	<g>
		<g>
			<path class="st12" d="M265,138.7c2.2-0.1,5.4-0.7,7.2,1c0.6,0.5,0.8,1.8,1.6,2.1c2.5,0.9,5.2-3.2,7.6-3.4c0.5,0,0.5-0.8,0-0.8
				c-1.4,0.1-2.2,0.6-3.3,1.4c-2.2,1.5-2.6,2-5.1,0.4c-2.7-1.7-4.6-1.6-7.9-1.5C264.5,138,264.5,138.7,265,138.7L265,138.7z"/>
		</g>
	</g>
	<g>
		<path class="st4" d="M260.6,75.3c-4.7,1.3-10.4,2.8-13.9,6.3c-1.3,1.3-2.3,2.8-3,4.5c-0.8,1.9-1.2,3.9-2,5.7
			c-0.6,1.2-1.3,2.2-2,3.3c-3,5.1-3.4,11.6-0.9,17c0.8,1.8,1.9,3.5,2.3,5.5c0.3,1.5-0.1,4.6,1.5,4.9c1.5-4.9,3.6-10.8,5.1-15.7
			c0.6-1.8,1.1-3.6,2-5.3c2.2-4,6.3-6.6,10.2-9c0.4-0.3,1-0.5,1.4-0.1c0.2,0.2,0.2,0.4,0.2,0.6c0.2,1.8,0.4,3.6,0.7,5.4
			c1.6-1.8,3.3-3.6,4.9-5.4c0.4-0.4,0.9-0.8,1.4-0.6c0.2,0.1,0.3,0.4,0.4,0.6c0.8,1.9,1.5,3.8,2.3,5.7c0.9-2.2,1.9-4.3,2.8-6.5
			c0.2-0.4,0.5-0.9,0.9-1c0.5,0,0.9,0.5,1.1,1c0.8,1.7,1.7,3.4,2.5,5.1c1.2-2.4,2.2-4.9,3-7.5c1.1,1.9,2.2,3.9,3.2,5.8
			c0.7-1.4,1.4-2.8,2.1-4.2c0.4-0.8,1.1-1.8,2-1.5c0.4,0.1,0.6,0.4,0.9,0.7c2,2.2,4,4.6,4.5,7.4c0.1,0.8,0.2,1.7,0.6,2.3
			c0.3,0.4,0.7,0.7,1.1,1.1c2.1,2.1,1.7,5.6,2.3,8.5c1.1,5.1,6,11.1,6,15.2c0-0.8,0.9-5.5,2.3-7.4c1.3-1.8,3.2-3.3,4.2-5.4
			c1.7-3.6,0.4-7.4-0.6-10.9c-1.2-4.2-1.8-8.4-3.7-12.4c-3.2-6.8-8.2-9.8-15.1-12.1c-4.6-1.5-9.2-2.9-14-3.4
			c-5.5-0.5-11.2,0-16.5,1.5C260.8,75.3,260.7,75.3,260.6,75.3z"/>
	</g>
	<g>
		<g>
			<path class="st12" d="M270.2,124.4c-2.1,0.3-2.6,6.5-3.2,8.2c-2.1,6.4-6.4,9.4-12.3,12c-0.5,0.2-0.1,1,0.5,0.8
				c3.7-1.6,7.4-3.4,9.9-6.7c1.3-1.8,2.1-3.8,2.8-5.8c0.4-1.1,1.5-7.4,2.5-7.5C271,125.2,270.8,124.3,270.2,124.4L270.2,124.4z"/>
		</g>
	</g>
	<g>
		<g>
			<path class="st12" d="M274.2,125c3,4.3,4.8,9.2,8.1,13.4c2.5,3.2,5.1,6,8.9,7.4c0.5,0.2,0.8-0.7,0.2-0.9
				c-8.9-3.5-11.5-13.3-16.5-20.4C274.7,124,273.9,124.5,274.2,125L274.2,125z"/>
		</g>
	</g>
	<path class="st14" d="M251.3,119.1h16.1c2.2,0,3.7,2.1,2.9,4.2l-1.5,4.1c-0.9,2.4-3.1,4-5.7,4h-6.9c-4.3,0-7.8-3.5-7.8-7.8v-1.6
		C248.5,120.4,249.7,119.1,251.3,119.1z"/>
	<path class="st14" d="M293.5,119.1h-16.1c-2.2,0-3.7,2.1-2.9,4.2l1.5,4.1c0.9,2.4,3.1,4,5.7,4h6.9c4.3,0,7.8-3.5,7.8-7.8v-1.6
		C296.3,120.4,295,119.1,293.5,119.1z"/>
	<g>
		<g>
			<path class="st12" d="M253.8,123.3c3.5-0.6,7.1-1,10.6-0.1c0.9,0.2,1.3-1.2,0.4-1.4c-3.8-0.9-7.6-0.5-11.4,0.1
				C252.5,122,252.9,123.5,253.8,123.3L253.8,123.3z"/>
		</g>
	</g>
	<g>
		<g>
			<path class="st12" d="M253.8,124.2c3.5-0.6,7.1-1,10.6-0.1c0.9,0.2,1.3-1.2,0.4-1.4c-3.8-0.9-7.6-0.5-11.4,0.1
				C252.5,122.9,252.9,124.4,253.8,124.2L253.8,124.2z"/>
		</g>
	</g>
	<g>
		<g>
			<path class="st12" d="M278,123.3c3.5-0.6,7.1-1,10.6-0.1c0.9,0.2,1.3-1.2,0.4-1.4c-3.8-0.9-7.6-0.5-11.4,0.1
				C276.7,122,277.1,123.5,278,123.3L278,123.3z"/>
		</g>
	</g>
	<g>
		<g>
			<path class="st12" d="M278,124.2c3.5-0.6,7.1-1,10.6-0.1c0.9,0.2,1.3-1.2,0.4-1.4c-3.8-0.9-7.6-0.5-11.4,0.1
				C276.7,122.9,277.1,124.4,278,124.2L278,124.2z"/>
		</g>
	</g>
	<g>
		<g>
			<path class="st12" d="M269.8,158.3c2.5,0,4.9,0,7.4,0c0.5,0,0.5-0.7,0-0.8c-1.3,0-2.5,0-3.8,0c-0.8,0-1.7-0.1-2.5,0.2
				c-0.1,0.1-0.2,0.2-0.2,0.3c-0.1,1.5,3.3,1.6,4.2,1.5c0.5,0,0.5-0.8,0-0.8c-0.8,0-1.5,0-2.3-0.2c-0.3-0.1-1-0.3-1.2-0.6
				c0.2,0.4,0.8,0.3,1.2,0.3c1.5,0,3.1,0,4.6,0c0-0.3,0-0.5,0-0.8c-2.5,0-4.9,0-7.4,0C269.3,157.5,269.3,158.3,269.8,158.3
				L269.8,158.3z"/>
		</g>
	</g>
	<path class="st4" d="M272.9,82.1c0,0-4,26.8,34.9,22.8C307.8,104.9,309.5,72.7,272.9,82.1z"/>
</g>
</svg>
