<?xml version="1.0" encoding="utf-8"?>
<!-- Generator: Adobe Illustrator 22.0.1, SVG Export Plug-In . SVG Version: 6.00 Build 0)  -->
<svg version="1.1" xmlns="http://www.w3.org/2000/svg" xmlns:xlink="http://www.w3.org/1999/xlink" x="0px" y="0px"
	 viewBox="0 0 130 150" style="enable-background:new 0 0 130 150;" xml:space="preserve">
<style type="text/css">
	.st0{fill:#FFFFFF;stroke:#D3D3D3;stroke-width:1.3;stroke-miterlimit:10;}
	.st1{fill:none;stroke:#D3D3D3;stroke-width:1.3;stroke-miterlimit:10;}
	.st2{fill:none;stroke:#D3D3D3;stroke-miterlimit:10;}
	.st3{fill:#D3D3D3;}
	.st4{fill:#FFFFFF;stroke:#D3D3D3;stroke-width:1.2;stroke-miterlimit:10;}
	.st5{display:none;}
	.st6{display:inline;fill:#FFFFFF;stroke:#040351;stroke-width:1.3;stroke-miterlimit:10;}
	.st7{display:inline;fill:none;stroke:#040351;stroke-width:1.3;stroke-miterlimit:10;}
	.st8{display:inline;fill:none;stroke:#040351;stroke-miterlimit:10;}
	.st9{display:inline;}
	.st10{fill:#040351;}
	.st11{display:inline;fill:#FFFFFF;stroke:#040351;stroke-width:1.2;stroke-miterlimit:10;}
	.st12{display:inline;fill:#040351;}
</style>
<g id="灰_x5F_市長">
	<path class="st0" d="M114,72c0,0,3.6,2.3,2.4,9.1c-1.2,6.8-4.8,11.4-4.8,14.8s-4.8,11.4-4.8,11.4s0-29.5,3.6-34.1S114,72,114,72z"
		/>
	<path class="st0" d="M16.5,71.7c-0.8,0.9-1.6,1.9-2.1,2.9c-0.9,1.9-1,4.1-0.8,6.1c0.7,6.9,4,11.7,3.7,15.1c-0.2,3.4,6.7,13,6.7,13
		s-0.6-30.7-3.8-35.5c-0.5-0.8-1.2-2.4-2.3-2.4c-0.4,0-0.9,0.3-1.2,0.6C16.7,71.5,16.6,71.6,16.5,71.7z"/>
	<ellipse class="st0" cx="64.4" cy="82.9" rx="45.4" ry="61.9"/>
	<path class="st1" d="M18.7,74.1c0,0,3,8.7,11,7.3"/>
	<path class="st1" d="M108.6,75.1c0,0-3.3,7.7-11.3,6.2"/>
	<line class="st2" x1="59.3" y1="81.7" x2="67.1" y2="81.7"/>
	<g>
		<g>
			<path class="st3" d="M52.3,102.4c3.3-0.1,8-1,10.7,1.5c0.8,0.8,1.1,2.6,2.3,3c3.6,1.3,7.6-4.8,11.1-5c0.5,0,0.5-0.8,0-0.8
				c-2,0.1-3.2,0.9-4.8,2.1c-3.3,2.3-3.8,3-7.7,0.6c-3.9-2.5-6.7-2.4-11.5-2.2C51.8,101.7,51.8,102.4,52.3,102.4L52.3,102.4z"/>
		</g>
	</g>
	<g>
		<path class="st3" d="M46,9.2c-6.9,1.9-15.3,4.2-20.4,9.3c-1.9,1.9-3.4,4.2-4.4,6.6c-1.1,2.7-1.7,5.7-3,8.4c-0.8,1.7-2,3.2-2.9,4.9
			c-4.4,7.5-4.9,17.1-1.4,25.1c1.2,2.7,2.8,5.2,3.4,8.1c0.5,2.2-0.1,6.8,2.1,7.2c2.2-7.2,5.3-15.9,7.5-23.1c0.8-2.7,1.6-5.3,3-7.8
			c3.3-5.9,9.2-9.7,14.9-13.3c0.6-0.4,1.5-0.8,2-0.2c0.2,0.2,0.3,0.6,0.3,0.9c0.3,2.6,0.6,5.3,1,7.9c2.4-2.7,4.8-5.3,7.3-8
			c0.5-0.6,1.3-1.2,2-0.8c0.3,0.2,0.5,0.6,0.7,1c1.1,2.8,2.2,5.6,3.3,8.4c1.4-3.2,2.7-6.4,4.1-9.6c0.3-0.6,0.7-1.4,1.4-1.4
			c0.8-0.1,1.3,0.7,1.7,1.4c1.2,2.5,2.5,5,3.7,7.5c1.8-3.6,3.3-7.2,4.5-11c1.6,2.9,3.2,5.7,4.8,8.6c1-2.1,2-4.1,3.1-6.2
			c0.6-1.2,1.6-2.6,2.9-2.2c0.5,0.1,0.9,0.6,1.3,1c2.9,3.2,5.9,6.7,6.6,11c0.2,1.2,0.3,2.4,0.9,3.4c0.4,0.6,1.1,1.1,1.6,1.6
			c3.1,3.1,2.5,8.2,3.4,12.5c1.6,7.5,8.8,16.4,8.8,22.4c0-1.2,1.3-8.1,3.3-10.9c2-2.7,4.7-4.9,6.1-7.9c2.5-5.3,0.6-10.8-0.8-16
			c-1.7-6.2-2.7-12.4-5.5-18.2c-4.7-10-12-14.4-22.2-17.8C84.4,9.7,77.6,7.7,70.5,7c-8.1-0.8-16.4,0-24.3,2.2
			C46.2,9.2,46.1,9.2,46,9.2z"/>
	</g>
	<g>
		<g>
			<path class="st3" d="M60,81.5c-3,0.5-4.1,10.4-4.9,12.7c-3.1,9-9.5,13.4-17.9,17c-0.9,0.4-0.1,1.7,0.8,1.3
				c5.7-2.4,11.5-5.3,15.1-10.5c1.7-2.5,2.8-5.3,3.7-8.1c0.5-1.6,2.2-10.6,3.6-10.9C61.4,82.8,61,81.3,60,81.5L60,81.5z"/>
		</g>
	</g>
	<g>
		<g>
			<path class="st3" d="M65.9,82.4c2.3,3.2,3.7,6.7,5.4,10.2c1.7,3.4,4,6.4,6.3,9.3c3.7,4.8,7.6,9.1,13.3,11.2
				c0.9,0.3,1.3-1.1,0.4-1.4c-6.8-2.6-11.2-8.7-15.3-14.4c-3.5-4.9-5.3-10.7-8.8-15.6C66.6,80.9,65.3,81.6,65.9,82.4L65.9,82.4z"/>
		</g>
	</g>
	<path class="st4" d="M32.2,73.7h23.7c3.2,0,5.4,3.1,4.3,6.1l-2.2,6c-1.3,3.5-4.6,5.8-8.3,5.8H39.6c-6.4,0-11.5-5.2-11.5-11.5v-2.3
		C28,75.6,29.9,73.7,32.2,73.7z"/>
	<path class="st4" d="M94.3,73.7H70.6c-3.2,0-5.4,3.1-4.3,6.1l2.2,6c1.3,3.5,4.6,5.8,8.3,5.8H87c6.4,0,11.5-5.2,11.5-11.5v-2.3
		C98.5,75.6,96.6,73.7,94.3,73.7z"/>
	<g>
		<g>
			<path class="st3" d="M35.9,79.9c5.2-0.8,10.4-1.5,15.6-0.2c1.4,0.4,2-1.8,0.6-2.2c-5.6-1.4-11.2-0.7-16.8,0.2
				C33.9,78,34.5,80.2,35.9,79.9L35.9,79.9z"/>
		</g>
	</g>
	<g>
		<g>
			<path class="st3" d="M35.9,81.3c5.2-0.8,10.4-1.5,15.6-0.2c1.4,0.4,2-1.8,0.6-2.2c-5.6-1.4-11.2-0.7-16.8,0.2
				C33.9,79.3,34.5,81.5,35.9,81.3L35.9,81.3z"/>
		</g>
	</g>
	<g>
		<g>
			<path class="st3" d="M71.5,79.6c5.3-0.8,10.5-1.5,15.8-0.2c0.9,0.2,1.3-1.2,0.4-1.4c-5.5-1.4-11-0.7-16.6,0.2
				C70.1,78.3,70.5,79.7,71.5,79.6L71.5,79.6z"/>
		</g>
	</g>
	<g>
		<g>
			<path class="st3" d="M71.5,80.9c5.3-0.8,10.5-1.5,15.8-0.2c0.9,0.2,1.3-1.2,0.4-1.4c-5.5-1.4-11-0.7-16.6,0.2
				C70.1,79.6,70.5,81.1,71.5,80.9L71.5,80.9z"/>
		</g>
	</g>
	<g>
		<g>
			<path class="st3" d="M59.4,131.6c3.6,0,7.3,0,10.9,0c1,0,1-1.5,0-1.5c-1.9,0-3.7,0-5.6,0c-1.3,0-2.6-0.2-3.8,0.3
				c-0.2,0.1-0.4,0.4-0.4,0.6c-0.1,2.3,5,2.5,6.3,2.4c1,0,1-1.5,0-1.5c-1.1,0-2.2,0-3.3-0.3c-0.5-0.2-1.1-0.7-1.6-0.8
				c0.1,0.2,0.3,0.5,0.4,0.7c0.4,0,0.8,0,1.2,0c2.2,0,4.5,0,6.7,0c0-0.5,0-1,0-1.5c-3.6,0-7.3,0-10.9,0
				C58.5,130.1,58.5,131.6,59.4,131.6L59.4,131.6z"/>
		</g>
	</g>
	<path class="st3" d="M64,19.2c0,0-5.9,39.5,51.4,33.6C115.4,52.8,117.8,5.4,64,19.2z"/>
</g>
<g id="灰_x5F_市長嘴巴">
	<path class="st1" d="M46.6,114.2c5.3,0,29,0,34.1,0c0.4,0,0.6,0.4,0.3,0.7c-2.9,3-16,14.7-34.6,0C46,114.6,46.2,114.2,46.6,114.2z"
		/>
</g>
<g id="灰_x5F_市長左眉毛">
	<path class="st3" d="M34.3,69.2l6.2-4.4c1-0.7,2.3-1,3.5-0.7l10,2.1c0.8,0.2,0.6,1.1-0.2,1.1h-11c-0.5,0-1.1,0.1-1.6,0.3l-6.5,2.3
		C34.3,70.1,33.9,69.5,34.3,69.2z"/>
</g>
<g id="灰_x5F_市長右眉毛">
	<path class="st3" d="M91.6,68.6l-6.2-4.4c-1-0.7-2.3-1-3.5-0.7l-10,2.1c-0.8,0.2-0.6,1.1,0.2,1.1h11c0.5,0,1.1,0.1,1.6,0.3l6.5,2.3
		C91.6,69.5,92,68.9,91.6,68.6z"/>
</g>
<g id="藍_x5F_市長" class="st5">
	<path class="st6" d="M114,72c0,0,3.6,2.3,2.4,9.1c-1.2,6.8-4.8,11.4-4.8,14.8s-4.8,11.4-4.8,11.4s0-29.5,3.6-34.1S114,72,114,72z"
		/>
	<path class="st6" d="M16.5,71.7c-0.8,0.9-1.6,1.9-2.1,2.9c-0.9,1.9-1,4.1-0.8,6.1c0.7,6.9,4,11.7,3.7,15.1c-0.2,3.4,6.7,13,6.7,13
		s-0.6-30.7-3.8-35.5c-0.5-0.8-1.2-2.4-2.3-2.4c-0.4,0-0.9,0.3-1.2,0.6C16.7,71.5,16.6,71.6,16.5,71.7z"/>
	<ellipse class="st6" cx="64.4" cy="82.9" rx="45.4" ry="61.9"/>
	<path class="st7" d="M18.7,74.1c0,0,3,8.7,11,7.3"/>
	<path class="st7" d="M108.6,75.1c0,0-3.3,7.7-11.3,6.2"/>
	<line class="st8" x1="59.3" y1="81.7" x2="67.1" y2="81.7"/>
	<g class="st9">
		<g>
			<path class="st10" d="M52.3,102.4c3.3-0.1,8-1,10.7,1.5c0.8,0.8,1.1,2.6,2.3,3c3.6,1.3,7.6-4.8,11.1-5c0.5,0,0.5-0.8,0-0.8
				c-2,0.1-3.2,0.9-4.8,2.1c-3.3,2.3-3.8,3-7.7,0.6c-3.9-2.5-6.7-2.4-11.5-2.2C51.8,101.7,51.8,102.4,52.3,102.4L52.3,102.4z"/>
		</g>
	</g>
	<g class="st9">
		<path class="st10" d="M46,9.2c-6.9,1.9-15.3,4.2-20.4,9.3c-1.9,1.9-3.4,4.2-4.4,6.6c-1.1,2.7-1.7,5.7-3,8.4
			c-0.8,1.7-2,3.2-2.9,4.9c-4.4,7.5-4.9,17.1-1.4,25.1c1.2,2.7,2.8,5.2,3.4,8.1c0.5,2.2-0.1,6.8,2.1,7.2c2.2-7.2,5.3-15.9,7.5-23.1
			c0.8-2.7,1.6-5.3,3-7.8c3.3-5.9,9.2-9.7,14.9-13.3c0.6-0.4,1.5-0.8,2-0.2c0.2,0.2,0.3,0.6,0.3,0.9c0.3,2.6,0.6,5.3,1,7.9
			c2.4-2.7,4.8-5.3,7.3-8c0.5-0.6,1.3-1.2,2-0.8c0.3,0.2,0.5,0.6,0.7,1c1.1,2.8,2.2,5.6,3.3,8.4c1.4-3.2,2.7-6.4,4.1-9.6
			c0.3-0.6,0.7-1.4,1.4-1.4c0.8-0.1,1.3,0.7,1.7,1.4c1.2,2.5,2.5,5,3.7,7.5c1.8-3.6,3.3-7.2,4.5-11c1.6,2.9,3.2,5.7,4.8,8.6
			c1-2.1,2-4.1,3.1-6.2c0.6-1.2,1.6-2.6,2.9-2.2c0.5,0.1,0.9,0.6,1.3,1c2.9,3.2,5.9,6.7,6.6,11c0.2,1.2,0.3,2.4,0.9,3.4
			c0.4,0.6,1.1,1.1,1.6,1.6c3.1,3.1,2.5,8.2,3.4,12.5c1.6,7.5,8.8,16.4,8.8,22.4c0-1.2,1.3-8.1,3.3-10.9c2-2.7,4.7-4.9,6.1-7.9
			c2.5-5.3,0.6-10.8-0.8-16c-1.7-6.2-2.7-12.4-5.5-18.2c-4.7-10-12-14.4-22.2-17.8C84.4,9.7,77.6,7.7,70.5,7
			c-8.1-0.8-16.4,0-24.3,2.2C46.2,9.2,46.1,9.2,46,9.2z"/>
	</g>
	<g class="st9">
		<g>
			<path class="st10" d="M60,81.5c-3,0.5-4.1,10.4-4.9,12.7c-3.1,9-9.5,13.4-17.9,17c-0.9,0.4-0.1,1.7,0.8,1.3
				c5.7-2.4,11.5-5.3,15.1-10.5c1.7-2.5,2.8-5.3,3.7-8.1c0.5-1.6,2.2-10.6,3.6-10.9C61.4,82.8,61,81.3,60,81.5L60,81.5z"/>
		</g>
	</g>
	<g class="st9">
		<g>
			<path class="st10" d="M65.9,82.4c2.3,3.2,3.7,6.7,5.4,10.2c1.7,3.4,4,6.4,6.3,9.3c3.7,4.8,7.6,9.1,13.3,11.2
				c0.9,0.3,1.3-1.1,0.4-1.4c-6.8-2.6-11.2-8.7-15.3-14.4c-3.5-4.9-5.3-10.7-8.8-15.6C66.6,80.9,65.3,81.6,65.9,82.4L65.9,82.4z"/>
		</g>
	</g>
	<path class="st11" d="M32.2,73.7h23.7c3.2,0,5.4,3.1,4.3,6.1l-2.2,6c-1.3,3.5-4.6,5.8-8.3,5.8H39.6c-6.4,0-11.5-5.2-11.5-11.5v-2.3
		C28,75.6,29.9,73.7,32.2,73.7z"/>
	<path class="st11" d="M94.3,73.7H70.6c-3.2,0-5.4,3.1-4.3,6.1l2.2,6c1.3,3.5,4.6,5.8,8.3,5.8H87c6.4,0,11.5-5.2,11.5-11.5v-2.3
		C98.5,75.6,96.6,73.7,94.3,73.7z"/>
	<g class="st9">
		<g>
			<path class="st10" d="M35.8,79.6c5.3-0.8,10.5-1.5,15.8-0.2c0.9,0.2,1.3-1.2,0.4-1.4c-5.5-1.4-11-0.7-16.6,0.2
				C34.5,78.3,34.9,79.7,35.8,79.6L35.8,79.6z"/>
		</g>
	</g>
	<g class="st9">
		<g>
			<path class="st10" d="M35.8,80.9c5.3-0.8,10.5-1.5,15.8-0.2c0.9,0.2,1.3-1.2,0.4-1.4c-5.5-1.4-11-0.7-16.6,0.2
				C34.5,79.6,34.9,81.1,35.8,80.9L35.8,80.9z"/>
		</g>
	</g>
	<g class="st9">
		<g>
			<path class="st10" d="M71.5,79.6c5.3-0.8,10.5-1.5,15.8-0.2c0.9,0.2,1.3-1.2,0.4-1.4c-5.5-1.4-11-0.7-16.6,0.2
				C70.1,78.3,70.5,79.7,71.5,79.6L71.5,79.6z"/>
		</g>
	</g>
	<g class="st9">
		<g>
			<path class="st10" d="M71.5,80.9c5.3-0.8,10.5-1.5,15.8-0.2c0.9,0.2,1.3-1.2,0.4-1.4c-5.5-1.4-11-0.7-16.6,0.2
				C70.1,79.6,70.5,81.1,71.5,80.9L71.5,80.9z"/>
		</g>
	</g>
	<g class="st9">
		<g>
			<path class="st10" d="M59.4,131.6c3.6,0,7.3,0,10.9,0c1,0,1-1.5,0-1.5c-1.9,0-3.7,0-5.6,0c-1.3,0-2.6-0.2-3.8,0.3
				c-0.2,0.1-0.4,0.4-0.4,0.6c-0.1,2.3,5,2.5,6.3,2.4c1,0,1-1.5,0-1.5c-1.1,0-2.2,0-3.3-0.3c-0.5-0.2-1.1-0.7-1.6-0.8
				c0.1,0.2,0.3,0.5,0.4,0.7c0.4,0,0.8,0,1.2,0c2.2,0,4.5,0,6.7,0c0-0.5,0-1,0-1.5c-3.6,0-7.3,0-10.9,0
				C58.5,130.1,58.5,131.6,59.4,131.6L59.4,131.6z"/>
		</g>
	</g>
	<path class="st12" d="M64,19.2c0,0-5.9,39.5,51.4,33.6C115.4,52.8,117.8,5.4,64,19.2z"/>
</g>
<g id="藍_x5F_市長嘴巴" class="st5">
	<path class="st7" d="M46.6,114.2c5.3,0,29,0,34.1,0c0.4,0,0.6,0.4,0.3,0.7c-2.9,3.3-16,15.8-34.6,0C46,114.6,46.2,114.2,46.6,114.2
		z"/>
</g>
<g id="藍_x5F_市長右眉毛" class="st5">
	<path class="st12" d="M91.6,68.6l-6.2-4.4c-1-0.7-2.3-1-3.5-0.7l-10,2.1c-0.8,0.2-0.6,1.1,0.2,1.1h11c0.5,0,1.1,0.1,1.6,0.3
		l6.5,2.3C91.6,69.5,92,68.9,91.6,68.6z"/>
</g>
<g id="藍_x5F_市長左眉毛" class="st5">
	<path class="st12" d="M34.3,69.2l6.2-4.4c1-0.7,2.3-1,3.5-0.7l10,2.1c0.8,0.2,0.6,1.1-0.2,1.1h-11c-0.5,0-1.1,0.1-1.6,0.3l-6.5,2.3
		C34.3,70.1,33.9,69.5,34.3,69.2z"/>
</g>
</svg>
