<?xml version="1.0" encoding="utf-8"?>
<!-- Generator: Adobe Illustrator 22.0.1, SVG Export Plug-In . SVG Version: 6.00 Build 0)  -->
<svg version="1.1" xmlns="http://www.w3.org/2000/svg" xmlns:xlink="http://www.w3.org/1999/xlink" x="0px" y="0px"
	 viewBox="0 0 130 150" style="enable-background:new 0 0 130 150;" xml:space="preserve">
<style type="text/css">
	.st0{fill:#D3D3D3;}
	.st1{fill:#FFFFFF;stroke:#D3D3D3;stroke-miterlimit:10;}
	.st2{fill:#FFFFFF;stroke:#D3D3D3;stroke-width:1.3;stroke-miterlimit:10;}
	.st3{fill:none;stroke:#D3D3D3;stroke-width:1.3;stroke-miterlimit:10;}
	.st4{display:none;}
	.st5{display:inline;fill:#040351;}
	.st6{display:inline;fill:#FFFFFF;stroke:#040351;stroke-miterlimit:10;}
	.st7{display:inline;fill:#FFFFFF;stroke:#040351;stroke-width:1.3;stroke-miterlimit:10;}
	.st8{display:inline;}
	.st9{fill:#3D3D3D;}
	.st10{fill:#040351;}
	.st11{display:inline;fill:none;stroke:#3D3D3D;stroke-width:1.3;stroke-miterlimit:10;}
	.st12{display:inline;fill:#3D3D3D;}
</style>
<g id="灰_x5F_議員">
	<g>
		<path class="st0" d="M52.3,129.5c-14.5,0.4-29.8-1.2-38.5-11C3.3,106.6-0.2,81.2,19,37.1C38.3-7,90.7,4.8,104.7,25.2
			c9.4,13.6,14.8,30.9,18.1,46.8c3.2,15.2,7.2,39.3-9.3,48.9c-10.7,6.2-28.2,6.2-40.4,7.1C67.1,128.5,59.8,129.3,52.3,129.5z"/>
		<path class="st1" d="M19.9,71.8c-4.2-0.1-7.3,3.5-7.6,7.5c-0.2,2.5,1.1,4.6,2.3,6.7c1.4,2.7,1.5,4.2,1.3,7.2c-0.3,4,5.2,8,8,10.2
			c-0.3-0.2,0.4-3.6,0.4-3.9c0.3-3.1,0.5-6.2,0.6-9.3c0.1-4.9,0.9-13.8-3.2-17.6C21.1,72,20.5,71.8,19.9,71.8z"/>
		<path class="st1" d="M110,71.8c4.2-0.1,7.3,3.5,7.6,7.5c0.2,2.5-1.1,4.6-2.3,6.7c-1.4,2.7-1.5,4.2-1.3,7.2c0.3,4-5.2,8-8,10.2
			c0.3-0.2-0.4-3.6-0.4-3.9c-0.3-3.1-0.5-6.2-0.6-9.3c-0.1-4.9-0.9-13.8,3.2-17.6C108.8,72,109.4,71.8,110,71.8z"/>
		<ellipse class="st2" cx="65.3" cy="77.8" rx="46.4" ry="63.4"/>
		<g>
			<g>
				<path class="st0" d="M60.2,127.6c3.7,0,7.4,0,11.2,0c1,0,1-1.5,0-1.5c-1.9,0-3.8,0-5.7,0c-1.3,0-2.7-0.2-3.9,0.4
					c-0.2,0.1-0.4,0.4-0.4,0.6c-0.2,2.4,5.1,2.5,6.5,2.5c1,0,1-1.5,0-1.5c-1.1,0.1-2.3,0-3.4-0.3c-0.6-0.2-1.1-0.7-1.7-0.8
					c0.1,0.2,0.3,0.5,0.4,0.7c0.4,0,0.8,0,1.2,0c2.3,0,4.6,0,6.9,0c0-0.5,0-1,0-1.5c-3.7,0-7.4,0-11.2,0
					C59.2,126.1,59.2,127.6,60.2,127.6L60.2,127.6z"/>
			</g>
		</g>
		<g>
			<path class="st0" d="M118.6,66.9c-2.4,8.2-12.4,1.8-17.2,0.1c-11.9-4.3-24.9-8.3-33.5-18.1c-8.8-10-12.4-23.9-6.8-36.4
				C70.2-7.6,123.5,50.1,118.6,66.9z"/>
		</g>
		<g>
			<path class="st0" d="M62.6,13.6c-2.2,18.1-14.2,34.8-29.7,48.2c-2.4,2.1-5,4.2-8.1,5.6c-4,1.9-8.6,2.6-13.1,3.4
				c-0.6,0.1-1.3,0.2-1.7-0.2c-0.4-0.3-0.4-0.7-0.4-1.1c0.1-2,0.8-3.9,1.6-5.8C16,51.7,22.2,40.2,29.9,29.3c1.1-1.6,2.3-3.2,3.9-4.5
				c3.7-2.9,2-7.5,6.2-9.9c2.2-1.2,9.9-3,12.2-4.2s6.4,1.8,8.9,2.5"/>
		</g>
		<g>
			<g>
				<path class="st0" d="M44.9,100.7c-0.7,2.6-2.4,4.9-4.7,6.4c-0.8,0.5-0.1,1.8,0.8,1.3c2.6-1.7,4.5-4.2,5.4-7.3
					C46.7,100.1,45.2,99.7,44.9,100.7L44.9,100.7z"/>
			</g>
		</g>
		<g>
			<g>
				<path class="st0" d="M81.4,99.7c1,3.5,3.4,6.4,6.7,7.9c0.9,0.4,1.6-0.9,0.8-1.3c-3-1.4-5.1-3.8-6-7
					C82.6,98.4,81.2,98.8,81.4,99.7L81.4,99.7z"/>
			</g>
		</g>
		<g>
			<g>
				<path class="st0" d="M62.1,82.2c-0.6,5.9-2.8,14.8,5.4,16.1c0.9,0.2,1.4-1.3,0.4-1.4c-7.2-1.2-4.8-9.6-4.3-14.7
					C63.7,81.3,62.2,81.3,62.1,82.2L62.1,82.2z"/>
			</g>
		</g>
		<g>
			<g>
				<path class="st0" d="M40.7,68.3c2.5-1.3,5.3-1.7,8.1-1c0.9,0.2,1.3-1.2,0.4-1.4C46,65.1,42.9,65.5,40,67
					C39.1,67.4,39.9,68.7,40.7,68.3L40.7,68.3z"/>
			</g>
		</g>
		<g>
			<g>
				<path class="st0" d="M77.4,67.3c2.8-0.7,5.5-0.4,8.1,0.8c0.9,0.4,1.6-0.9,0.8-1.3c-2.9-1.4-6.1-1.8-9.3-1
					C76,66.1,76.4,67.6,77.4,67.3L77.4,67.3z"/>
			</g>
		</g>
		<path class="st0" d="M53.3,29.8c0,0-1.1,21.6-9.7,28.5c-0.3,0.2,0,0.7,0.3,0.5c5.8-2.2,18.2-8.4,20.3-20.9
			C67,21.6,53.3,27.1,53.3,29.8z"/>
	</g>
</g>
<g id="灰_x5F_嘴巴">
	<path class="st3" d="M47,103.6c5.4,0,29.7,0,34.9,0c0.4,0,0.6,0.8,0.3,1.3c-3,5.8-16.4,27.7-35.5-0.1
		C46.5,104.4,46.6,103.6,47,103.6z"/>
</g>
<g id="灰_x5F_左眼">
	<path class="st0" d="M32,80.4c0,0,20.1-11.8,23.8,1.4c0,0,0.5,2.7-2.7,0.5C49.9,80,54.4,73.7,32,80.4z"/>
</g>
<g id="灰_x5F_右眼">
	<path class="st0" d="M93.8,80.4c0,0-20.1-11.8-23.8,1.4c0,0-0.5,2.7,2.7,0.5S71.4,73.7,93.8,80.4z"/>
</g>
<g id="藍_x5F_議員" class="st4">
	<path class="st5" d="M52.3,129.5c-14.5,0.4-29.8-1.2-38.5-11C3.3,106.6-0.2,81.2,19,37.1C38.3-7,90.7,4.8,104.7,25.2
		c9.4,13.6,14.8,30.9,18.1,46.8c3.2,15.2,7.2,39.3-9.3,48.9c-10.7,6.2-28.2,6.2-40.4,7.1C67.1,128.5,59.8,129.3,52.3,129.5z"/>
	<path class="st6" d="M19.9,71.8c-4.2-0.1-7.3,3.5-7.6,7.5c-0.2,2.5,1.1,4.6,2.3,6.7c1.4,2.7,1.5,4.2,1.3,7.2c-0.3,4,5.2,8,8,10.2
		c-0.3-0.2,0.4-3.6,0.4-3.9c0.3-3.1,0.5-6.2,0.6-9.3c0.1-4.9,0.9-13.8-3.2-17.6C21.1,72,20.5,71.8,19.9,71.8z"/>
	<path class="st6" d="M110,71.8c4.2-0.1,7.3,3.5,7.6,7.5c0.2,2.5-1.1,4.6-2.3,6.7c-1.4,2.7-1.5,4.2-1.3,7.2c0.3,4-5.2,8-8,10.2
		c0.3-0.2-0.4-3.6-0.4-3.9c-0.3-3.1-0.5-6.2-0.6-9.3c-0.1-4.9-0.9-13.8,3.2-17.6C108.8,72,109.4,71.8,110,71.8z"/>
	<ellipse class="st7" cx="65.3" cy="77.8" rx="46.4" ry="63.4"/>
	<g class="st8">
		<g>
			<path class="st9" d="M60.2,127.6c3.7,0,7.4,0,11.2,0c1,0,1-1.5,0-1.5c-1.9,0-3.8,0-5.7,0c-1.3,0-2.7-0.2-3.9,0.4
				c-0.2,0.1-0.4,0.4-0.4,0.6c-0.2,2.4,5.1,2.5,6.5,2.5c1,0,1-1.5,0-1.5c-1.1,0.1-2.3,0-3.4-0.3c-0.6-0.2-1.1-0.7-1.7-0.8
				c0.1,0.2,0.3,0.5,0.4,0.7c0.4,0,0.8,0,1.2,0c2.3,0,4.6,0,6.9,0c0-0.5,0-1,0-1.5c-3.7,0-7.4,0-11.2,0
				C59.2,126.1,59.2,127.6,60.2,127.6L60.2,127.6z"/>
		</g>
	</g>
	<g class="st8">
		<path class="st10" d="M118.6,66.9c-2.4,8.2-12.4,1.8-17.2,0.1c-11.9-4.3-24.9-8.3-33.5-18.1c-8.8-10-12.4-23.9-6.8-36.4
			C70.2-7.6,123.5,50.1,118.6,66.9z"/>
	</g>
	<g class="st8">
		<path class="st10" d="M62.6,13.6c-2.2,18.1-14.2,34.8-29.7,48.2c-2.4,2.1-5,4.2-8.1,5.6c-4,1.9-8.6,2.6-13.1,3.4
			c-0.6,0.1-1.3,0.2-1.7-0.2c-0.4-0.3-0.4-0.7-0.4-1.1c0.1-2,0.8-3.9,1.6-5.8C16,51.7,22.2,40.2,29.9,29.3c1.1-1.6,2.3-3.2,3.9-4.5
			c3.7-2.9,2-7.5,6.2-9.9c2.2-1.2,9.9-3,12.2-4.2s6.4,1.8,8.9,2.5"/>
	</g>
	<g class="st8">
		<g>
			<path class="st9" d="M44.9,100.7c-0.7,2.6-2.4,4.9-4.7,6.4c-0.8,0.5-0.1,1.8,0.8,1.3c2.6-1.7,4.5-4.2,5.4-7.3
				C46.7,100.1,45.2,99.7,44.9,100.7L44.9,100.7z"/>
		</g>
	</g>
	<g class="st8">
		<g>
			<path class="st9" d="M81.4,99.7c1,3.5,3.4,6.4,6.7,7.9c0.9,0.4,1.6-0.9,0.8-1.3c-3-1.4-5.1-3.8-6-7
				C82.6,98.4,81.2,98.8,81.4,99.7L81.4,99.7z"/>
		</g>
	</g>
	<g class="st8">
		<g>
			<path class="st9" d="M62.1,82.2c-0.6,5.9-2.8,14.8,5.4,16.1c0.9,0.2,1.4-1.3,0.4-1.4c-7.2-1.2-4.8-9.6-4.3-14.7
				C63.7,81.3,62.2,81.3,62.1,82.2L62.1,82.2z"/>
		</g>
	</g>
	<path class="st5" d="M53.3,29.8c0,0-1.1,21.6-9.7,28.5c-0.3,0.2,0,0.7,0.3,0.5c5.8-2.2,18.2-8.4,20.3-20.9
		C67,21.6,53.3,27.1,53.3,29.8z"/>
</g>
<g id="藍_x5F_眉毛" class="st4">
	<g class="st8">
		<g>
			<path class="st9" d="M40.7,68.3c2.5-1.3,5.3-1.7,8.1-1c0.9,0.2,1.3-1.2,0.4-1.4C46,65.1,42.9,65.5,40,67
				C39.1,67.4,39.9,68.7,40.7,68.3L40.7,68.3z"/>
		</g>
	</g>
	<g class="st8">
		<g>
			<path class="st9" d="M77.4,67.3c2.8-0.7,5.5-0.4,8.1,0.8c0.9,0.4,1.6-0.9,0.8-1.3c-2.9-1.4-6.1-1.8-9.3-1
				C76,66.1,76.4,67.6,77.4,67.3L77.4,67.3z"/>
		</g>
	</g>
</g>
<g id="藍_x5F_嘴巴" class="st4">
	<path class="st11" d="M47,103.6c5.4,0,29.7,0,34.9,0c0.4,0,0.6,0.8,0.3,1.3c-3,5.8-16.4,27.7-35.5-0.1
		C46.5,104.4,46.6,103.6,47,103.6z"/>
</g>
<g id="藍_x5F_左眼" class="st4">
	<path class="st12" d="M32,80.4c0,0,20.1-11.8,23.8,1.4c0,0,0.5,2.7-2.7,0.5C49.9,80,54.4,73.7,32,80.4z"/>
</g>
<g id="藍_x5F_右眼" class="st4">
	<path class="st12" d="M93.8,80.4c0,0-20.1-11.8-23.8,1.4c0,0-0.5,2.7,2.7,0.5S71.4,73.7,93.8,80.4z"/>
</g>
</svg>
