<?xml version="1.0" encoding="utf-8"?>
<!-- Generator: Adobe Illustrator 22.0.1, SVG Export Plug-In . SVG Version: 6.00 Build 0)  -->
<svg version="1.1" xmlns="http://www.w3.org/2000/svg" xmlns:xlink="http://www.w3.org/1999/xlink" x="0px" y="0px"
	 viewBox="0 0 130 150" style="enable-background:new 0 0 130 150;" xml:space="preserve">
<style type="text/css">
	.st0{fill:#FFFFFF;stroke:#D3D3D3;stroke-width:1.3;stroke-miterlimit:10;}
	.st1{fill:#D3D3D3;}
	.st2{fill:none;stroke:#D3D3D3;stroke-width:1.3;stroke-miterlimit:10;}
	.st3{display:none;}
	.st4{display:inline;}
	.st5{fill:#FFFFFF;stroke:#0C0C0C;stroke-width:1.3;stroke-miterlimit:10;}
	.st6{fill:#040351;}
	.st7{fill:none;stroke:#0C0C0C;stroke-width:1.3;stroke-miterlimit:10;}
	.st8{fill:#0C0C0C;}
	.st9{display:inline;fill:none;stroke:#0C0C0C;stroke-width:1.3;stroke-miterlimit:10;}
</style>
<g id="灰_x5F_里長">
	<g>
		<path class="st0" d="M19.8,72.5c0,0-17-2.8-9.6,19.2s22,7.3,22,8.8S19.8,72.5,19.8,72.5z"/>
		<path class="st0" d="M110.5,72.5c0,0,17-2.8,9.6,19.2s-22,7.3-22,8.8S110.5,72.5,110.5,72.5z"/>
		<ellipse class="st0" cx="64.8" cy="79.3" rx="49.8" ry="65.2"/>
		<path class="st1" d="M115,82.2c0,0,5.9,4,5.9-13.4s-2-40.6-21.9-54.1S37.2-2.6,19.3,26.4c0,0-2,5.8-12,0c0,0-4,7.7,6,13.5v32.8
			c0,0,2,13.8,2,8s7.9-37,9.9-37s25.9,3.9,37.9-1.9S93,22.5,99,34.1C104.9,45.7,116.5,60.2,115,82.2z"/>
		<line class="st2" x1="16.1" y1="75.6" x2="41" y2="81.5"/>
		<line class="st2" x1="85" y1="81.5" x2="114.3" y2="74"/>
		<line class="st2" x1="60" y1="81.5" x2="65.9" y2="81.5"/>
		<g>
			<g>
				<path class="st1" d="M62.1,89.7c0.6,3.4-1.2,8.3,3,10c0.9,0.4,1.3-1.1,0.4-1.4c-3.1-1.2-1.5-6.4-2-8.9
					C63.4,88.4,61.9,88.8,62.1,89.7L62.1,89.7z"/>
			</g>
		</g>
		<circle class="st0" cx="76" cy="80.7" r="9.7"/>
		<circle class="st0" cx="50.7" cy="80.7" r="9.7"/>
		<g>
			<g>
				<path class="st1" d="M49.5,84.7c-0.2-1.7-0.6-4.2,1.2-5.2c1.8-1,2.9,1.2,3.5,2.6c0.4,0.9,1.7,0.1,1.3-0.8
					c-0.9-2.1-2.7-4.4-5.2-3.3c-2.8,1.3-2.6,4.5-2.2,7.1C48.2,86,49.7,85.6,49.5,84.7L49.5,84.7z"/>
			</g>
		</g>
		<g>
			<g>
				<path class="st1" d="M48.5,102.2c-5.4,6.1-8.6,13.5-9.2,21.6c-0.1,1,1.4,1,1.5,0c0.6-7.7,3.6-14.7,8.8-20.6
					C50.2,102.5,49.1,101.5,48.5,102.2L48.5,102.2z"/>
			</g>
		</g>
		<g>
			<g>
				<path class="st1" d="M77.8,103.2C83,109,86,116,86.6,123.8c0.1,1,1.6,1,1.5,0c-0.6-8.1-3.8-15.5-9.2-21.6
					C78.3,101.5,77.2,102.5,77.8,103.2L77.8,103.2z"/>
			</g>
		</g>
		<circle class="st1" cx="83.5" cy="102" r="2.2"/>
		<g>
			<g>
				<path class="st1" d="M59.5,129.7c3.8,0,7.7,0,11.5,0c1,0,1-1.5,0-1.5c-2,0-3.9,0-5.9,0c-1.3,0-2.7-0.2-4,0.4
					c-0.2,0.1-0.4,0.4-0.4,0.6c-0.2,2.4,5.2,2.6,6.7,2.5c1,0,1-1.5,0-1.5c-1.2,0.1-2.4,0-3.5-0.3c-0.7-0.2-1.1-0.6-1.8-0.9
					c0.1,0.2,0.3,0.5,0.4,0.7c0.4,0,0.8,0,1.3,0c2.4,0,4.8,0,7.1,0c0-0.5,0-1,0-1.5c-3.8,0-7.7,0-11.5,0
					C58.5,128.2,58.5,129.7,59.5,129.7L59.5,129.7z"/>
			</g>
		</g>
	</g>
</g>
<g id="灰_x5F_嘴巴">
	<path class="st2" d="M48.1,107.9c5.1,0,27.9,0,32.8,0c0.4,0,0.6,0.7,0.3,1.2c-2.8,5.4-15.4,25.8-33.4-0.1
		C47.6,108.6,47.7,107.9,48.1,107.9z"/>
</g>
<g id="灰_x5F_左眼">
</g>
<g id="灰_x5F_右眼">
	<g>
		<g>
			<path class="st1" d="M79.3,85.1c0.4-2.5,0.5-5.8-2.2-7.1c-2.5-1.2-4.4,1.2-5.2,3.3c-0.4,0.9,0.9,1.6,1.3,0.8
				c0.6-1.3,1.7-3.6,3.5-2.6c1.8,1,1.5,3.5,1.2,5.2C77.7,85.6,79.2,86,79.3,85.1L79.3,85.1z"/>
		</g>
	</g>
</g>
<g id="灰_x5F_左眉毛">
	<g>
		<g>
			<path class="st1" d="M48.5,59.9c-4,2-9,1.4-11.7,5.5c-0.3,0.4,0,1,0.4,1.1c1.8,0.5,3-0.6,4.4-1.6c2.1-1.5,4.4-2.7,6.9-3.6
				c0.9-0.3,0.5-1.8-0.4-1.4c-1.6,0.6-3.2,1.3-4.7,2.1c-1.3,0.7-4.2,3.5-5.8,3c0.1,0.4,0.3,0.7,0.4,1.1c2.4-3.6,7.6-3.2,11.2-5
				C50.1,60.8,49.3,59.5,48.5,59.9L48.5,59.9z"/>
		</g>
	</g>
</g>
<g id="灰_x5F_右眉毛">
	<g>
		<g>
			<path class="st1" d="M77.2,61.2c3.6,1.8,8.8,1.3,11.2,5c0.1-0.4,0.3-0.7,0.4-1.1c-1.6,0.5-4.5-2.3-5.8-3
				c-1.5-0.8-3.1-1.5-4.7-2.1c-0.9-0.3-1.3,1.1-0.4,1.4c2.4,0.9,4.7,2.1,6.9,3.6c1.4,1,2.6,2.1,4.4,1.6c0.4-0.1,0.7-0.7,0.4-1.1
				c-2.7-4.1-7.8-3.5-11.7-5.5C77.1,59.5,76.3,60.8,77.2,61.2L77.2,61.2z"/>
		</g>
	</g>
</g>
<g id="藍_x5F_里長" class="st3">
	<g class="st4">
		<path class="st5" d="M19.8,72.5c0,0-17-2.8-9.6,19.2s22,7.3,22,8.8S19.8,72.5,19.8,72.5z"/>
		<path class="st5" d="M110.5,72.5c0,0,17-2.8,9.6,19.2s-22,7.3-22,8.8S110.5,72.5,110.5,72.5z"/>
		<ellipse class="st5" cx="64.8" cy="79.3" rx="49.8" ry="65.2"/>
		<path class="st6" d="M115,82.2c0,0,5.9,4,5.9-13.4s-2-40.6-21.9-54.1S37.2-2.6,19.3,26.4c0,0-2,5.8-12,0c0,0-4,7.7,6,13.5v32.8
			c0,0,2,13.8,2,8s7.9-37,9.9-37s25.9,3.9,37.9-1.9S93,22.5,99,34.1C104.9,45.7,116.5,60.2,115,82.2z"/>
		<line class="st7" x1="16.1" y1="75.6" x2="41" y2="81.5"/>
		<line class="st7" x1="85" y1="81.5" x2="114.3" y2="74"/>
		<line class="st7" x1="60" y1="81.5" x2="65.9" y2="81.5"/>
		<g>
			<g>
				<path class="st8" d="M62.1,89.7c0.6,3.4-1.2,8.3,3,10c0.9,0.4,1.3-1.1,0.4-1.4c-3.1-1.2-1.5-6.4-2-8.9
					C63.4,88.4,61.9,88.8,62.1,89.7L62.1,89.7z"/>
			</g>
		</g>
		<circle class="st5" cx="76" cy="80.7" r="9.7"/>
		<circle class="st5" cx="50.7" cy="80.7" r="9.7"/>
		<g>
			<g>
				<path class="st8" d="M48.5,102.2c-5.4,6.1-8.6,13.5-9.2,21.6c-0.1,1,1.4,1,1.5,0c0.6-7.7,3.6-14.7,8.8-20.6
					C50.2,102.5,49.1,101.5,48.5,102.2L48.5,102.2z"/>
			</g>
		</g>
		<g>
			<g>
				<path class="st8" d="M77.8,103.2C83,109,86,116,86.6,123.8c0.1,1,1.6,1,1.5,0c-0.6-8.1-3.8-15.5-9.2-21.6
					C78.3,101.5,77.2,102.5,77.8,103.2L77.8,103.2z"/>
			</g>
		</g>
		<circle class="st6" cx="83.5" cy="102" r="2.2"/>
		<g>
			<g>
				<path class="st6" d="M59.5,129.7c3.8,0,7.7,0,11.5,0c1,0,1-1.5,0-1.5c-2,0-3.9,0-5.9,0c-1.3,0-2.7-0.2-4,0.4
					c-0.2,0.1-0.4,0.4-0.4,0.6c-0.2,2.4,5.2,2.6,6.7,2.5c1,0,1-1.5,0-1.5c-1.2,0.1-2.4,0-3.5-0.3c-0.7-0.2-1.1-0.6-1.8-0.9
					c0.1,0.2,0.3,0.5,0.4,0.7c0.4,0,0.8,0,1.3,0c2.4,0,4.8,0,7.1,0c0-0.5,0-1,0-1.5c-3.8,0-7.7,0-11.5,0
					C58.5,128.2,58.5,129.7,59.5,129.7L59.5,129.7z"/>
			</g>
		</g>
	</g>
</g>
<g id="藍_x5F_嘴巴" class="st3">
	<path class="st9" d="M48.1,107.9c5.1,0,27.9,0,32.8,0c0.4,0,0.6,0.7,0.3,1.2c-2.8,5.4-15.4,25.8-33.4-0.1
		C47.6,108.6,47.7,107.9,48.1,107.9z"/>
</g>
<g id="藍_x5F_左眼" class="st3">
	<g class="st4">
		<g>
			<path class="st8" d="M49.5,84.7c-0.2-1.7-0.6-4.2,1.2-5.2c1.8-1,2.9,1.2,3.5,2.6c0.4,0.9,1.7,0.1,1.3-0.8
				c-0.9-2.1-2.7-4.4-5.2-3.3c-2.8,1.3-2.6,4.5-2.2,7.1C48.2,86,49.7,85.6,49.5,84.7L49.5,84.7z"/>
		</g>
	</g>
</g>
<g id="藍_x5F_右眼" class="st3">
	<g class="st4">
		<g>
			<path class="st8" d="M79.3,85.1c0.4-2.5,0.5-5.8-2.2-7.1c-2.5-1.2-4.4,1.2-5.2,3.3c-0.4,0.9,0.9,1.6,1.3,0.8
				c0.6-1.3,1.7-3.6,3.5-2.6c1.8,1,1.5,3.5,1.2,5.2C77.7,85.6,79.2,86,79.3,85.1L79.3,85.1z"/>
		</g>
	</g>
</g>
<g id="藍_x5F_左眉毛" class="st3">
	<g class="st4">
		<g>
			<path class="st6" d="M48.5,59.9c-4,2-9,1.4-11.7,5.5c-0.3,0.4,0,1,0.4,1.1c1.8,0.5,3-0.6,4.4-1.6c2.1-1.5,4.4-2.7,6.9-3.6
				c0.9-0.3,0.5-1.8-0.4-1.4c-1.6,0.6-3.2,1.3-4.7,2.1c-1.3,0.7-4.2,3.5-5.8,3c0.1,0.4,0.3,0.7,0.4,1.1c2.4-3.6,7.6-3.2,11.2-5
				C50.1,60.8,49.3,59.5,48.5,59.9L48.5,59.9z"/>
		</g>
	</g>
</g>
<g id="藍右眉毛" class="st3">
	<g class="st4">
		<g>
			<path class="st6" d="M77.2,61.2c3.6,1.8,8.8,1.3,11.2,5c0.1-0.4,0.3-0.7,0.4-1.1c-1.6,0.5-4.5-2.3-5.8-3
				c-1.5-0.8-3.1-1.5-4.7-2.1c-0.9-0.3-1.3,1.1-0.4,1.4c2.4,0.9,4.7,2.1,6.9,3.6c1.4,1,2.6,2.1,4.4,1.6c0.4-0.1,0.7-0.7,0.4-1.1
				c-2.7-4.1-7.8-3.5-11.7-5.5C77.1,59.5,76.3,60.8,77.2,61.2L77.2,61.2z"/>
		</g>
	</g>
</g>
</svg>
